<svg width="835" height="1258" viewBox="0 0 835 1258" fill="none" xmlns="http://www.w3.org/2000/svg">
<path fill-rule="evenodd" clip-rule="evenodd" d="M755.721 1229.93C622.361 1250.58 486.582 1251.62 352.114 1244.12C298.897 1240.06 245.516 1239.33 192.342 1244.52C160.921 1246.9 23.1554 1257.63 11.8995 1228.95C18.9838 1076.23 33.3318 922.217 77.3474 775.341C95.4491 723.189 110.996 679.904 146.326 636.747C157.461 624.964 181.473 600.251 195.232 592.191C207.153 585.209 212.135 587.7 218.98 575.907C225.782 562.88 230.799 541.124 240.456 531.932C250.29 522.573 264.863 525.921 282.925 528.936C279.607 483.236 300.307 471.597 328.823 462.907C378.949 443.411 428.452 453.205 441.068 515.389C464.461 515.389 477.601 525.648 491.806 535.505C497.613 539.535 493.573 549.801 500.509 552.968C513.342 557.624 536.02 556.484 548.376 562.214C604.563 588.273 654.607 626.061 687.473 681.249C761.153 799.077 811.766 1047.28 803.007 1186.93C806.845 1193.07 801.538 1201.86 800.19 1208.45C798.487 1214.19 792.974 1218.01 787.22 1217.35C779.191 1226.15 766.771 1228.11 755.721 1229.93Z" fill="#D08B5B"/>
<g filter="url(#filter0_d)">
<path fill-rule="evenodd" clip-rule="evenodd" d="M478.273 524.727C470.055 515.991 457.171 510.775 444.97 511.069L444.398 511.086L440.256 511.276L443.024 525.114L443.163 525.77L443.728 528.172L444.48 531.318L444.747 532.474L445.029 533.754C445.074 533.962 445.117 534.168 445.159 534.371L445.283 534.977L446.463 540.856L446.243 541.379L446.306 542.715C446.489 547.544 445.468 550.199 443.219 551.051L443.039 551.114L441.756 551.534L440.708 553.849C438.299 559.144 436.051 563.77 433.743 568.126C427.013 580.831 418.983 593.531 409.725 606.295C400.928 618.423 391.765 629.999 382.237 640.991C377.953 645.933 373.428 650.895 368.612 655.947L364.466 660.274L363.147 661.634L362.26 662.536L361.154 663.64L359.56 665.189L358.405 666.348L358.03 666.71C357.559 667.157 357.194 667.458 356.866 667.673L356.744 667.75L356.379 667.97L337.159 688.571L330.37 692.375L327.146 694.196L326.492 692.871L326.361 692.446L319.216 676.458L314.854 666.666C305.901 646.52 298.935 630.494 292.564 615.234L291.771 613.33L289.423 607.653L288.179 604.624C282.485 590.718 278.279 579.986 274.515 569.561L273.98 568.074L273.188 565.846L272.01 562.487L271.796 561.913C270.773 559.246 273.285 549.551 275.759 544.24L275.899 543.944L276.542 542.628L277.238 541.24C278.874 537.987 280.059 534.376 281.055 530.005C281.216 529.297 281.368 528.585 281.511 527.866L281.718 526.784L281.85 526.073L282.033 525.079L282.296 523.654L276.76 522.711L273.722 522.206L272.398 521.995C270.682 521.725 269.154 521.502 267.717 521.317L267.182 521.249L266.219 521.133L266.185 521.326L264.21 521.525L262.743 521.679C255.519 522.458 249.947 523.316 245.991 524.266L245.6 524.362L244.894 524.543L244.571 524.631C240.972 525.618 238.199 527.751 236.004 530.897C234.499 533.055 233.522 535.122 231.976 539.039L231.421 540.453L229.581 545.089C229.366 545.653 229.033 546.555 228.583 547.795L227.021 552.127L219.195 574.152L211.186 578.447C207.462 580.432 204.74 581.863 203.395 582.54L202.918 582.777L202.576 582.936L199.816 584.051L200.112 584.929L199.779 585.123C166.805 604.453 141.377 634.189 121.58 673.666L120.982 674.865L120.369 676.108C104.591 708.264 93.287 744.148 82.2494 792.057L81.567 795.036L81.0295 797.405L78.1522 810.19C67.3402 858.462 59.9103 894.458 53.7615 929.777L53.3624 932.08L52.3375 938.08C44.6161 983.796 38.1505 1029.1 32.9776 1073.96L32.119 1081.5C29.9604 1100.78 28.0102 1120.7 25.8944 1144.63L25.6113 1147.84L24.6793 1158.59C23.6879 1170.17 22.7816 1181.73 21.961 1193.26L21.5578 1199.02L20.7295 1211.56L20.2429 1218.7L20.1841 1219.67L19.9868 1223.39L19.9324 1224.26C19.8579 1225.38 19.7743 1226.32 19.6682 1227.2L19.5842 1227.84L19.4904 1228.46C19.2174 1230.17 18.6782 1231.7 17.7851 1233.4L17.5545 1233.83L16.0221 1236.63L18.8001 1238.12C33.2835 1245.89 61.7998 1249.31 100.919 1249.49L102.108 1249.5H104.554C123.562 1249.48 143.709 1248.74 164.73 1247.46L169.484 1247.17L173.452 1246.91C175.161 1246.79 176.825 1246.68 178.55 1246.56L181.196 1246.37L192.249 1245.54C241.969 1240.69 294.11 1240.77 351.562 1245.15C501.348 1253.5 630.633 1249.98 752.148 1231.5L755.828 1230.93L758.54 1230.48L760.157 1230.21C773.047 1227.97 781.14 1225.09 787.455 1219.06L787.786 1218.74L788.062 1218.47L788.181 1218.47C794.54 1218.44 800.361 1214.2 802.521 1207.95L802.633 1207.61L802.776 1207.15L802.874 1206.68C802.975 1206.23 803.1 1205.75 803.253 1205.22L803.373 1204.81L804.377 1201.46L800.995 1200.83C800.703 1200.77 800.4 1200.57 800.106 1200.13L799.825 1199.72L799.337 1199.03L798.159 1197.39C796.904 1195.59 796.287 1194.47 795.981 1193.34C795.71 1192.34 795.609 1191.05 795.638 1189.27L795.661 1188.4L795.794 1185.23C795.803 1184.98 795.809 1184.76 795.813 1184.55L795.817 1184.23L795.819 1179.78L795.808 1174.88C795.801 1172.75 795.789 1170.67 795.773 1168.62L795.745 1165.58L795.718 1163.13C795.555 1149.58 795.165 1136.04 794.547 1122.52C793.34 1096.13 791.268 1069.77 788.338 1043.52C782.287 989.314 773.019 936.743 760.412 885.94L759.146 880.867C745.514 826.574 732.37 784.717 715.665 746.011C694.418 696.781 668.512 656.265 635.893 623.874C617.96 606.064 598.099 591.032 576.992 579.503C567.286 574.2 556.969 569.495 545.906 565.262L544.321 564.661L541.761 563.708L539.798 562.969L533.472 560.56C532.142 560.053 530.695 559.484 528.984 558.799L527.924 558.373L516.595 553.767L514.714 553.013L512.622 552.184L511.085 551.582C508.571 550.605 506.294 549.753 504.181 549.001L502.932 548.562L501.799 548.173L496.963 546.468L497.058 550.951C497.121 553.93 496.367 556.183 494.694 557.8L494.638 557.852L494.58 557.899L494.529 557.934L494.236 557.925L493.093 557.92C492.975 557.854 492.864 557.776 492.761 557.687C491.135 556.279 490.379 554.392 489.645 550.064L489.451 548.861L489.112 546.605L488.977 545.751C488.488 542.748 488.062 541.09 487.233 539.192C486.036 536.45 484.454 533.779 482.591 531.324L482.156 530.762L480.417 528.63L480.15 528.294C479.541 527.498 479.228 526.936 479.097 526.421L479.066 526.281L478.892 525.386L478.273 524.727Z" fill="#F6C63D"/>
</g>
<path fill-rule="evenodd" clip-rule="evenodd" d="M203.724 588.736C204.542 588.271 203.822 587.079 202.999 587.473C163.449 606.381 133.108 639.554 111.759 677.883C89.6532 717.571 77.0538 762.632 66.1915 806.673L65.7996 808.265C54.2168 855.379 44.3683 902.98 35.5017 950.697C26.5219 999.019 19.3142 1047.64 13.5161 1096.46C10.6477 1120.6 8.09064 1144.78 6.09603 1169.01C5.09974 1181.12 4.19431 1193.24 3.38074 1205.36C3.05572 1210.21 2.74965 1215.06 2.48709 1219.91L2.29871 1223.56C2.13641 1226.86 1.75158 1230.17 2.55187 1233.42C3.24294 1236.23 4.70163 1238.77 5.98476 1241.35C8.52242 1246.45 15.4791 1245.61 18.2137 1241.35L19.0079 1240.11C20.8213 1237.26 22.3281 1234.6 22.8971 1231.05C23.4473 1227.6 23.4677 1224 23.7147 1220.52C24.169 1214.13 24.5559 1207.72 24.9968 1201.32C25.9227 1187.85 26.9629 1174.39 28.1143 1160.94C30.3917 1134.39 32.8344 1107.86 35.8345 1081.38C41.165 1034.31 47.8542 987.378 55.7398 940.69C63.4444 895.083 73.1845 849.937 83.3457 804.849L84.3983 800.185C102.19 721.463 129.61 630.806 203.724 588.736ZM624.987 896.992C624.697 896.204 623.445 896.023 623.234 896.992C620.569 909.216 620.306 921.807 619.899 934.322C619.498 946.668 619.514 959.07 619.691 971.423C620.342 1016.82 621.565 1062.19 622.622 1107.58C623.151 1130.29 623.647 1152.99 624.028 1175.7C624.172 1184.22 624.293 1192.74 624.393 1201.26L624.516 1212.49C624.578 1217.46 624.706 1222.36 625.3 1227.32C625.692 1230.59 626.527 1233.7 628.295 1236.5C629.549 1238.48 631.338 1239.49 633.081 1240.84L633.407 1241.1C635.63 1242.89 637.972 1242.9 640.174 1241.1L640.813 1240.58C642.916 1238.91 644.734 1237.6 646.077 1234.95C647.945 1231.26 648.244 1227.26 648.561 1223.19C649.043 1217.04 648.724 1210.79 648.661 1204.61C648.537 1192.22 648.368 1179.83 648.155 1167.45C647.372 1122.02 645.825 1076.58 643.004 1031.23C641.676 1009.87 639.874 988.438 637.457 967.164L636.997 963.177C636.264 956.918 635.595 950.547 634.842 944.156C646.088 936.095 655.973 926.314 664.403 915.219C665.024 914.402 664.002 913.257 663.253 914.047C654.639 923.136 644.763 930.382 633.829 936.079C632.038 922.7 629.575 909.393 624.987 896.992ZM437.11 492.029C436.956 491.907 436.715 491.854 436.568 492.029C434.15 494.9 434.641 499.291 434.563 502.931L434.554 503.27C434.38 508.591 434.347 513.895 434.365 519.219L434.419 536.166V536.166C434.426 538.497 434.612 540.922 434.494 543.266L434.433 544.173V544.173C433.163 545.499 432.573 547.414 433.004 549.337C433.082 551.805 434.347 553.863 436.194 555.158L432.236 560.88V560.88L428.275 566.598C420.11 578.4 411.855 590.097 403.251 601.574C394.479 613.277 385.12 624.537 375.327 635.365C370.542 640.655 365.676 645.872 360.697 650.973C358.674 653.046 356.6 655.067 354.549 657.112L352.508 659.166C351.303 660.395 349.786 661.61 348.986 663.167C348.515 664.085 348.408 666.349 348.239 666.724C346.729 670.108 349.306 675.504 353.589 673.815L353.395 673.683C352.615 673.131 353.115 673.123 354.895 673.66C356.018 673.656 357.071 673.393 358.054 672.871L358.347 672.707C359.732 671.99 360.969 670.602 362.094 669.491L362.373 669.22C364.947 666.763 367.4 664.157 369.866 661.589C375.014 656.23 380.045 650.758 384.916 645.138C394.634 633.926 403.847 622.259 412.571 610.231C421.458 597.979 429.718 585.099 436.822 571.69C439.518 566.601 441.989 561.414 444.358 556.167C448.97 554.658 450.041 549.66 449.719 544.029C451.421 539.99 452.954 535.869 453.861 531.658C453.984 531.08 453.256 530.536 452.821 531.041C451.346 532.749 449.98 534.567 448.667 536.433C447.875 532.485 446.872 528.851 446.401 526.534L444.356 516.311V516.311C455.878 515.699 468.503 520.523 476.446 528.968C476.872 531.167 478.533 532.741 480.152 534.796C482.002 537.146 483.616 539.783 484.819 542.541C487.488 548.654 485.982 557.661 491.162 562.146C491.702 562.613 492.305 562.938 492.928 563.138C490.47 575.422 491.585 588.957 491.639 601.418L491.641 602.515C491.629 616.462 492.086 630.42 492.615 644.356L493.153 658.148C493.85 676.542 494.303 694.944 492.548 713.237C484.54 706.01 476.26 699.111 467.694 692.54C462.062 688.218 456.318 684.05 450.468 680.038L445.716 676.802C440.02 672.91 434.187 668.905 427.951 666.118C419.795 662.474 412.039 663.727 404.165 667.464C396.323 671.187 388.715 675.512 381.024 679.547C373.201 683.65 365.361 687.718 357.526 691.797C352.337 694.5 344.732 696.939 340.926 701.914C340.683 700.813 340.4 699.716 340.069 698.623C340.447 696.955 340.301 695.153 339.383 693.436C326.593 669.486 314.759 644.963 303.008 620.471C297.059 608.076 291.404 595.535 285.445 583.147L279.652 571.082C278.684 569.072 277.713 567.064 276.737 565.059C275.275 562.057 273.753 559.083 272.275 556.089C271.65 554.823 270.867 553.566 270.259 552.289L269.971 551.649C269.957 551.615 268.553 547.117 269.638 547.546L269.731 547.592C270.284 547.911 270.727 547.202 270.369 546.749C268.836 544.817 266.7 546.528 265.826 548.317C263.415 553.238 267.832 560.963 269.531 565.675L269.624 565.939C274.896 581.147 280.866 596.069 286.982 610.94C298.71 639.451 311.309 667.524 323.879 695.645L324.028 696.129V696.129C321.348 694.035 318.486 692.134 316.035 690.285C309.852 685.617 303.488 681.179 297.135 676.756C285.484 668.644 273.517 661.067 261.351 653.788L258.916 652.337C252.839 648.729 246.82 645.804 239.607 646.887C232.906 647.893 226.676 651.561 220.622 654.541L219.996 654.847L201.291 663.91C203.29 655.783 205.455 647.696 207.714 639.639C212.12 623.924 216.968 608.34 222.225 592.897C227.135 578.467 232.443 564.195 238.057 550.036L239.747 545.787C242.036 539.957 244.312 533.6 250.855 531.805C257.393 530.011 264.893 532.672 270.868 528.874C271.411 528.529 271.344 527.616 270.685 527.448L266.998 526.501C260.075 524.746 251.959 522.98 245.412 524.687C238.288 526.547 232.394 532.64 228.938 538.974C225.094 546.02 222.385 553.906 219.469 561.42L219.006 562.603C215.659 571.106 212.44 579.66 209.359 588.268C203.2 605.474 197.592 622.888 192.517 640.458C190.071 648.926 187.751 657.434 185.521 665.963C184.88 668.416 183.822 671.39 182.954 674.492C181.96 675.481 181.019 676.583 180.136 677.841C178.671 679.928 179.723 682.375 181.544 683.624C181.614 685.759 182.08 687.766 183.192 689.487C187.536 696.206 199.018 694.475 198.552 685.442C198.481 684.06 197.953 682.74 197.152 681.625L197.175 681.443V681.443L197.266 681.113V681.113C199.259 680.139 201.261 679.054 203.371 677.992L223.003 668.106V668.106C228.688 665.242 234.991 660.818 241.313 659.727C247.208 658.71 253.427 663.185 258.492 665.885L258.821 666.059C271.065 672.454 283.219 679.062 295.324 685.724C301.233 688.977 307.066 692.365 312.953 695.657C317.875 698.409 323.187 702.36 328.72 703.913C331.083 705.786 333.89 705.535 336.146 704.119C335.115 710.626 335.179 717.304 334.862 723.956C334.437 732.85 334.371 741.768 334.231 750.674L334.174 754.013C333.802 773.701 333.603 793.395 333.53 813.087C333.269 883.21 334.029 953.353 334.207 1023.48C334.297 1058.71 334.981 1093.97 335.88 1129.19C336.261 1144.11 337.057 1159.02 337.917 1173.92L338.39 1182.05C339.391 1199.19 339.982 1216.53 343.098 1233.45C343.504 1235.66 347.169 1235.71 347.528 1233.45C350.395 1215.32 350.555 1196.8 351.106 1178.46L351.222 1174.79C351.885 1155.1 352.199 1135.42 352.132 1115.72C351.887 1045.56 350.097 975.458 348.633 905.327C347.897 870.091 347.402 834.839 346.259 799.614C345.687 781.989 345.04 764.375 344.273 746.757C343.93 738.891 343.6 731.032 343.087 723.178L342.856 719.812C342.697 717.616 342.568 715.447 342.412 713.298C349.377 715.89 355.746 711.09 362.012 707.806C369.233 704.021 376.451 700.229 383.675 696.45L390.905 692.679V692.679L405.374 685.155C411.888 681.767 416.907 678.395 423.856 682.369C448.889 696.681 471.892 715.725 492.738 735.707C496.736 739.54 505.183 738.51 506.195 732.087C510.521 704.649 507.89 676.814 505.682 649.293L504.868 639.076C503.881 626.872 502.807 614.669 501.375 602.515C500.735 597.078 500.097 591.644 499.392 586.218L498.849 582.149C497.967 575.717 497.391 569.324 495.511 563.155C496.104 562.96 496.674 562.639 497.185 562.146C502.838 556.68 500.112 547.196 497.533 540.695C494.986 534.277 491.102 528.676 486.238 523.856C485.177 522.803 483.682 522.126 482.179 522.09C470.386 514.128 457.449 510.154 443.984 514.501C443.605 512.658 443.22 510.818 442.814 508.983L442.4 507.149C441.353 502.596 440.964 495.074 437.11 492.029ZM316.243 1211.08C312.584 1210.06 308.577 1211.14 305.896 1213.87C303.215 1216.61 302.153 1220.69 303.162 1224.42C303.666 1226.25 304.578 1227.85 305.896 1229.2C307.128 1230.45 308.565 1231.34 310.207 1231.87L310.589 1231.99L311.187 1232.24C313.022 1232.74 314.857 1232.74 316.69 1232.24C318.444 1231.74 319.966 1230.84 321.258 1229.53C322.541 1228.21 323.428 1226.66 323.921 1224.87C324.414 1223 324.414 1221.13 323.921 1219.26L323.67 1218.65V1218.65C323.166 1216.82 322.255 1215.22 320.937 1213.87C319.61 1212.53 318.045 1211.6 316.243 1211.08ZM98.95 839.459C98.3488 838.756 97.3739 839.657 97.7475 840.404C103.448 851.792 109.801 863.099 116.045 874.198C115.545 877.274 115.049 880.325 114.478 883.299C112.046 895.976 109.066 908.424 107.123 921.221C100.141 967.221 96.5165 1013.72 93.4062 1060.13C90.2866 1106.71 89.8875 1153.31 89.419 1199.98C89.3782 1204.03 92.4313 1208.73 96.5226 1209.49C98.3957 1209.84 99.7973 1209.77 101.666 1209.49C105.924 1208.85 108.587 1203.88 108.77 1199.98C109.991 1173.9 111.633 1147.85 113.536 1121.81C116.909 1075.63 118.97 1029.34 121.694 983.123L122.654 966.969C123.683 949.465 124.625 931.95 124.932 914.42C125.136 902.806 124.527 891.196 124.901 879.596C125.247 868.886 126.313 857.241 123.996 846.719C123.91 846.325 123.299 846.225 123.122 846.602C120.713 851.771 119.187 857.388 118.011 863.122C111.803 855.12 105.48 847.101 98.95 839.459ZM505.627 556.561C504.755 556.495 504.79 557.83 505.627 557.929C517.811 559.369 529.581 564.422 541.085 568.716L542.071 569.082C553.693 573.38 565.025 578.377 575.93 584.334C597.251 595.981 616.83 610.998 634.14 628.19C703.252 696.819 734.748 795.784 757.827 888.786C770.65 940.458 779.769 993.003 785.679 1045.95C788.602 1072.14 790.668 1098.42 791.872 1124.75C792.489 1138.24 792.878 1151.75 793.04 1165.25C793.124 1172.17 793.148 1179.09 793.14 1186.01C793.136 1189.18 792.581 1193.17 793.413 1196.25C794.184 1199.1 796.361 1201.61 797.97 1203.99C799.878 1206.8 803.307 1206.66 805.241 1203.99L805.955 1203.01C808.018 1200.23 810.036 1197.56 810.331 1193.91C810.646 1190.01 810.424 1185.98 810.438 1182.05C810.471 1174.15 810.375 1166.24 810.22 1158.33C809.921 1143.18 809.335 1128.03 808.464 1112.9C806.696 1082.2 803.786 1051.56 799.619 1021.1C792.212 966.951 781.11 913.322 766.568 860.701C752.849 811.06 736.596 761.566 713.443 715.584C691.945 672.891 663.743 633.175 626.529 603.338C609.224 589.462 590.385 577.899 570.075 569.191C559.831 564.799 549.074 561.213 538.134 559.169C527.316 557.147 516.545 557.429 505.627 556.561ZM314.146 1123.34C312.214 1123.33 310.059 1123.76 308.401 1124.85L306.186 1126.59V1126.59C305.586 1127.38 304.989 1128.17 304.394 1128.96C303.009 1130.8 302.825 1133.77 303.114 1135.97C303.179 1137.43 303.606 1138.79 304.394 1140.05L306.08 1142.28V1142.28C307.701 1143.62 309.053 1144.58 311.016 1145.23C312.042 1145.57 313.03 1145.64 314.015 1145.59L314.343 1145.57L314.146 1145.6L314.491 1145.56V1145.56C314.812 1145.53 315.134 1145.49 315.456 1145.45C315.676 1145.42 315.896 1145.4 316.116 1145.37C316.327 1145.35 316.531 1145.35 316.744 1145.37C319.239 1145.61 321.747 1144.16 323.518 1142.51C325.114 1141.01 326.546 1137.85 326.323 1135.61L326.228 1134.67C326.06 1133.09 325.923 1132.46 325.265 1130.87C324.626 1129.33 323.733 1127.96 322.517 1126.81C320.189 1124.61 317.34 1123.36 314.146 1123.34ZM321.869 1007.58C318.557 1003.9 312.871 1003.63 308.764 1005.85C307.764 1006.4 306.845 1007.27 305.963 1007.99C303.741 1009.82 302.868 1013.13 302.746 1015.91C302.624 1018.66 304.048 1021.93 305.963 1023.83L306.427 1024.29V1024.29C307.572 1025.42 309.211 1026.41 310.812 1026.71C313.393 1027.19 315.561 1027.18 317.965 1026.14C320.031 1025.25 321.811 1023.83 323.022 1021.89L323.218 1021.56C323.301 1021.42 323.38 1021.29 323.453 1021.15L323.56 1020.93C325.861 1016.42 325.242 1011.32 321.869 1007.58ZM320.154 891.202C318.66 890.724 317.168 890.656 315.675 890.998C314.661 891 313.716 891.261 312.84 891.778C311.889 892.049 311.062 892.54 310.361 893.251C309.518 893.759 308.846 894.443 308.346 895.303C307.353 896.409 306.684 897.706 306.336 899.196L305.935 902.239L306.336 905.283L307.469 908.018V908.018C307.78 908.432 308.093 908.846 308.41 909.258C308.91 910.12 309.584 910.808 310.43 911.317C310.98 911.875 311.611 912.292 312.316 912.581C314.817 914.408 318.149 915.004 321.112 914.172C322.872 913.67 324.4 912.762 325.696 911.45C326.983 910.129 327.874 908.572 328.366 906.78L328.569 905.348C328.83 903.428 328.872 902.364 328.338 899.923C328.105 898.85 327.426 897.336 327.071 896.698C325.552 893.977 323.07 892.112 320.154 891.202ZM190.481 807.478C186.193 807.447 181.905 807.456 177.617 807.504L174.402 807.548C169.017 807.634 164.405 807.068 160.172 810.876C157.099 813.639 158.453 818.274 161.369 820.356C165.788 823.508 171.331 821.922 176.411 821.575C181.768 821.209 187.129 820.905 192.492 820.66C202.876 820.186 213.265 819.885 223.66 819.838C234.032 819.793 244.419 819.893 254.79 820.063C265.343 820.238 276.331 821.24 286.824 820.127C288.266 819.974 288.59 818.042 287.167 817.54C277.279 814.054 266.156 812.924 255.793 811.591C245.104 810.215 234.415 809.241 223.66 808.61C212.612 807.964 201.547 807.557 190.481 807.478ZM320.173 773.239L319.819 773.246C317.932 773.251 316.165 773.703 314.518 774.604L314.167 774.803L311.901 776.586C310.514 778.011 309.553 779.689 309.022 781.622L308.622 784.656V784.656C308.563 786.226 308.886 787.691 309.586 789.052C310.038 790.467 310.81 791.69 311.901 792.724C312.916 793.836 314.117 794.623 315.504 795.083C316.737 795.742 318.056 796.073 319.465 796.073L319.819 796.066C321.839 796.059 323.724 795.54 325.469 794.508L327.736 792.724V792.724C329.124 791.3 330.084 789.622 330.615 787.689L331.016 784.656V784.656C331.073 783.085 330.753 781.618 330.05 780.259C329.599 778.845 328.828 777.62 327.736 776.586C326.722 775.474 325.521 774.688 324.132 774.228C322.9 773.568 321.581 773.238 320.173 773.239V773.239ZM286.979 505.191C284.566 501.63 280.194 504.797 280.82 507.66C280.655 515.7 280.252 523.503 278.456 531.379C277.634 534.985 276.557 538.594 274.897 541.897L274.199 543.288C272.049 547.616 270.38 551.698 273.276 556.447C274.64 558.685 277.107 560.366 279.78 560.249C291.636 559.728 293.266 542.909 293.986 533.521C294.729 523.852 292.418 513.225 286.979 505.191Z" fill="black"/>
<path fill-rule="evenodd" clip-rule="evenodd" d="M186.297 316.965C188.531 297.288 185.64 256.16 185.446 253.661C184.221 237.865 191.605 175.486 205.562 181.234C228.976 162.653 260.161 158.551 289.322 156.591C349.892 152.519 414.329 161.866 461.1 202.728C484.23 223.949 506.748 254.813 504.938 286.949C525.954 317.411 555.58 359.195 529.396 394.807C520.496 406.185 506.35 410.422 495.169 419.038C472.679 437.222 458.57 463.319 435.867 481.395C375.719 535.576 273.587 546.894 214.492 485.268C168.794 440.636 176.183 373.864 184.221 316.965C189.625 278.712 181.939 355.353 186.297 316.965Z" fill="#EDB98A"/>
<path fill-rule="evenodd" clip-rule="evenodd" d="M370.236 73.1473C354.037 69.8704 337.403 67.8315 320.86 68.4452L319.585 68.4949C307.138 68.9936 291.375 70.0967 280.517 77.3521C279.892 76.7238 278.887 76.4013 277.976 76.8372C265.073 83.0112 250.881 87.475 237.295 91.9108C223.771 96.3247 209.74 99.2385 195.566 100.413C190.233 100.855 185.669 106.628 189.046 111.805C189.849 113.039 190.631 114.285 191.411 115.534C190.107 115.398 188.804 115.258 187.501 115.126C183.212 114.693 178.927 119.282 179.181 123.468C179.34 126.101 179.623 128.702 180.042 131.273C178.409 131.239 176.785 131.484 175.216 132.149C167.271 135.512 167.824 144.998 168.418 152.216C169.242 162.232 172.979 172.84 179.918 180.337C174.737 185.73 171.07 192.172 168.882 199.822C167.296 205.408 166.413 211.359 166.848 217.174L166.987 218.915C167.526 225.225 168.598 232.212 173.127 236.752C175.451 239.092 178.315 239.946 181.046 239.675C179.395 254.218 178.336 268.844 177.34 283.419L176.873 290.385C174.651 324.069 172.98 357.972 173.417 391.712C173.823 423.243 180.038 453.848 199.33 479.449C216.9 502.761 242.126 519.947 270.664 526.48C286.044 530.006 301.745 530.256 317.311 528.009C324.856 526.917 332.452 525.242 339.613 522.6C347.54 519.666 353.238 515.349 358.572 508.878C361.094 505.809 359.88 499.277 354.857 499.89C347.259 500.814 340.323 501.927 333.039 504.179L331.996 504.509C324.741 506.839 317.228 508.577 309.643 509.315C294.107 510.824 278.334 509.305 263.452 504.582C239.221 496.884 218.352 479.73 204.975 458.175C189.098 432.626 187.302 403.623 187.532 374.245C187.777 342.009 188.823 309.754 190.531 277.55L190.821 272.184C191.724 255.612 192.596 239.03 193.363 222.448C193.601 217.247 193.965 212.004 194.619 206.813C200.606 203.297 205.971 198.449 209.469 192.467C216.494 195.38 223.883 197.481 230.681 199.156C246.428 203.039 262.776 203.981 278.804 201.55C283.128 203.34 287.537 204.914 292.014 206.269C293.224 206.806 294.434 207.335 295.643 207.853C306.436 212.482 317.385 216.404 328.778 219.275L331.577 219.975C337.573 221.457 344.086 222.916 350.467 223.374C351.515 223.78 352.646 224.123 353.882 224.425C359.692 225.839 365.723 226.287 371.678 225.787C377.48 225.298 381.673 219.421 378.477 213.918C376.142 209.902 373.785 205.897 371.409 201.903C379.679 205.356 388.22 208.227 396.833 210.662C405.53 213.117 414.35 215.187 423.183 217.091C427.904 218.1 432.646 218.994 437.357 220.003C440.73 220.721 445.908 221.096 448.659 223.322C451.699 225.767 452.56 231.467 453.713 234.983C455.228 239.55 456.65 244.138 457.947 248.777C460.53 258.036 462.647 267.43 464.287 276.917C465.926 286.415 467.027 296.006 467.64 305.629C468.251 315.241 467.982 324.915 468.967 334.486C469.497 339.563 474.934 342.174 478.95 338.626C479.421 338.21 479.896 337.789 480.366 337.364L481.067 336.723C484.503 333.602 487.834 330.294 490.583 326.569C491.081 325.883 491.559 325.165 492.005 324.437C492.078 324.437 492.14 324.416 492.212 324.364L492.975 323.789C501.368 317.527 515.389 309.363 523.573 319.766C526.181 323.08 527.516 327.3 528.624 331.372L530.569 338.658C531.826 343.415 533.01 348.198 533.703 353.065C535.27 363.967 534.481 376.534 526.998 385.272C524.009 388.768 519.889 391.264 515.293 391.92C512.729 392.273 510.197 391.837 507.654 391.514C505.07 391.192 502.581 391.712 499.996 391.462C495.886 391.056 494.091 395.987 495.627 399.087C496.457 400.752 497.433 402.187 498.543 403.404C497.651 404.174 496.799 405.006 495.979 405.88C493.551 406.661 491.373 408.335 489.743 410.551C488.425 412.34 487.741 414.286 487.626 416.335C487.481 416.845 487.357 417.365 487.242 417.896L485.015 421.518C484.526 422.312 484.038 423.097 483.548 423.867C477.882 432.813 471.592 440.386 463.778 447.523C456.255 454.388 448.089 460.537 441.021 467.902L440.188 468.776C433.599 475.737 426.653 484.162 429.232 494.283C429.896 496.884 433.519 498.756 435.884 496.998C443.49 491.339 447.321 482.372 453.774 475.506C460.417 468.432 467.775 462.076 474.436 455.023C480.736 448.365 485.707 440.823 489.452 432.522C490.947 434.176 493.126 435.351 496.145 435.809C501.334 436.589 506.171 433.541 508.432 429.037C509.886 429.682 511.369 430.264 512.865 430.722C520.731 433.136 525.68 424.366 522.712 417.885C521.125 414.411 519.143 411.394 516.682 408.856C524.373 407.794 532.198 403.81 537.252 398.838C549.932 386.344 551.675 367.567 548.821 350.87C547.306 342.018 544.692 333.061 541.298 324.749C540.707 323.303 540.073 321.847 539.379 320.411C539.763 320.401 540.157 320.234 540.406 319.912C542.7 316.77 545.49 314.201 547.193 310.684C548.76 307.46 550.503 304.193 551.739 300.833C554.28 293.957 555.525 286.196 556.355 278.925C558.068 264.038 557.405 249.246 555.131 234.453C551.261 209.257 541.913 185.146 528.141 163.989C528.891 163.594 529.61 163.117 530.279 162.553L530.61 162.264L531.148 161.777C535.078 158.212 534.738 151.53 531.148 147.919L530.014 146.78C528.578 145.35 527.339 144.217 525.02 142.66C524.677 142.43 524.328 142.213 523.974 142.012C525.188 139.763 525.609 137.133 524.763 134.231C521.816 124.124 507.309 124.482 498.113 128.89C487.94 119.788 476.66 111.887 464.433 105.49C435.313 90.2599 402.386 79.6386 370.236 73.1473ZM520.761 339.355C515.323 337.576 508.1 341.31 503.212 343.557C497.017 346.408 491.745 350.621 486.639 355.073C484.097 357.299 483.641 360.94 484.273 364.051C484.337 364.363 484.398 364.685 484.472 365.008C485.146 368.326 488.841 370.937 492.109 370.844C498.948 370.657 502.206 364.737 506.077 359.723C506.533 360.535 507.104 361.284 507.811 361.845L508.288 362.22C509.894 363.446 511.665 364.426 513.788 364.332C515.293 364.259 516.734 363.874 518.063 363.177C521.384 361.419 522.846 357.112 521.945 353.606C521.384 351.401 520.097 349.674 518.416 348.478L519.043 348.048C520.384 347.113 521.607 346.127 522.56 344.671L522.775 344.327H522.692C523.73 342.538 523.054 340.104 520.761 339.355Z" fill="black"/>
<path fill-rule="evenodd" clip-rule="evenodd" d="M263.909 444.042C271.57 446.262 279.793 446.46 287.602 444.168C294.685 442.089 301.957 437.513 307.17 431.458C311.801 426.079 314.8 419.543 314.682 412.565C314.669 411.768 314.384 411.103 313.946 410.587C313.474 410.031 312.815 409.65 312.109 409.484C311.383 409.314 310.616 409.374 309.963 409.671C309.371 409.94 308.864 410.396 308.548 411.063C307.746 412.116 306.948 413.153 306.147 414.162C299.706 422.118 293.468 428.064 283.782 430.197C278.527 431.354 273.278 430.841 268.462 429.075C263.307 427.185 258.647 423.861 254.995 419.609C253.345 417.687 251.397 416.902 249.492 416.889C247.333 416.874 245.199 417.877 243.591 419.481C242.011 421.058 240.953 423.201 240.857 425.442C240.773 427.409 241.414 429.463 243.121 431.296C248.742 437.335 256.027 441.758 263.909 444.042ZM264.146 344.392C256.293 349.167 244.327 360.301 252.775 372.139C262.719 382.576 277.036 370.609 284.092 365.197C290.634 361.002 297.984 371.79 291.914 376.688C240.933 414.445 220.243 345.641 260.174 338.778C264.57 338.022 266.203 342.915 264.146 344.392ZM337.606 323.381C340.13 321.766 343.099 321.212 346.39 322.71C348.961 323.88 353.471 327.779 356.61 332.905C358.757 336.412 360.28 340.526 359.963 344.812C359.889 345.807 360.257 346.541 360.837 347.083C361.295 347.512 361.956 347.827 362.733 347.925C363.393 348.009 364.131 347.933 364.732 347.746C365.874 347.389 366.478 346.648 366.706 346.043C368.903 340.205 367.957 333.69 365.494 327.813C362.17 319.88 356.133 313.236 352.179 311.094C345.411 307.427 337.427 307.258 330.65 310.994C324.881 314.173 321.274 319.307 317.686 324.539C316.923 325.652 316.166 326.756 315.384 327.841C313.816 330.014 313.66 332.17 314.267 334.018C314.94 336.066 316.655 337.795 318.8 338.699C320.782 339.535 323.083 339.653 325.118 338.794C326.838 338.068 328.417 336.654 329.415 334.254C331.097 330.212 333.899 325.752 337.606 323.381V323.381ZM209.417 332.374C211.146 333.275 212.498 333.547 214.416 332.972C215.476 332.653 216.524 332.043 217.345 331.222C218.158 330.408 218.745 329.397 218.973 328.275C219.534 325.505 221.048 322.913 223.207 321.222C225.052 319.778 227.381 319.012 229.964 319.444C232.752 319.91 235.408 321.698 237.237 323.806C237.848 324.512 238.327 325.313 238.809 326.109C239.71 327.597 240.586 328.981 241.829 330.074C242.3 330.49 243.01 330.778 243.698 330.778C243.977 330.778 244.261 330.732 244.531 330.648C247.306 327.862 247.839 325.749 247.75 323.653C247.656 321.455 246.79 319.23 245.39 317.154C242.106 312.283 235.871 308.29 231.664 307.385C225.902 306.147 220.18 307.634 215.592 310.853C210.872 314.165 207.374 319.308 206.284 325.103C206.021 326.499 206.133 328.006 206.664 329.312C207.183 330.588 208.088 331.682 209.417 332.374ZM324.899 271.453C328.357 274.823 332.449 275.345 336.589 275.81C338.89 276.07 340.726 276.28 342.533 276.688C347.501 277.809 352.41 279.499 356.89 281.932C361.572 284.475 366.675 287.542 370.346 291.471C371.219 292.406 372.042 293.387 372.866 294.371C373.618 295.267 374.341 296.13 375.104 296.963C375.98 297.919 376.812 298.92 377.64 299.92C378.152 300.763 378.253 300.97 378.356 301.186C378.511 301.511 378.691 301.874 378.897 302.263C379.179 302.797 379.51 303.38 379.856 303.91C380.432 304.877 380.741 305.144 381.008 305.263C381.451 305.461 381.871 305.558 382.279 305.505C382.661 305.456 383.021 305.272 383.376 304.972C385.152 303.471 385.675 301.009 385.622 298.395C385.54 294.429 384.078 290.037 382.73 287.338C379.595 281.065 375.247 274.544 370.02 269.863C364.055 264.519 357.529 260.474 350.033 257.686C345.374 255.953 339.981 254.362 334.906 254.563C331.253 254.708 327.766 255.794 324.886 258.506C323.117 260.172 322.269 262.54 322.269 264.907C322.269 267.321 323.15 269.749 324.899 271.453ZM202.385 302.313C202.605 302.674 202.909 302.922 203.248 303.071C203.603 303.228 203.999 303.273 204.38 303.209C204.758 303.145 205.118 302.973 205.404 302.711C205.677 302.459 205.886 302.126 205.979 301.717C208.275 291.631 212.732 284.127 222.246 279.288C226.927 276.907 232.308 275.395 237.403 274.189C238.884 273.838 240.448 273.611 242.024 273.381C246.961 272.66 251.934 271.834 255.153 267.842C257.092 265.437 257.906 262.361 257.446 259.549C257.013 256.9 255.466 254.472 252.654 253.017C245.652 249.396 236.952 252.949 229.881 255.976C229.357 256.2 228.842 256.421 228.338 256.633C221.424 259.553 215.118 263.406 209.934 268.918C205.821 273.29 202.011 279.753 200.476 286.402C199.199 291.934 199.499 297.581 202.385 302.313Z" fill="black"/>
<path fill-rule="evenodd" clip-rule="evenodd" d="M247.92 460.844C257.605 452.213 268.461 434.861 282.375 448.59C285.816 452.47 287.209 461.166 292.471 462.872C299.46 465.14 306.386 457.744 308.767 452.064C318.511 420.505 278.23 411.849 255.283 416.947C244.073 421.553 235.815 440.09 235.316 449.765C234.994 456.267 240.495 465.827 247.92 460.844M174.854 412.2C174.949 411.781 175.081 411.403 175.24 411.058C179.524 409.439 182.913 411.09 185.007 414.176C184.938 414.943 184.71 415.72 184.565 416.48C186.181 419.886 187.639 424.1 189.829 427.043C190.262 427.076 190.71 427.031 191.141 426.906C227.448 430.699 209.722 392.698 246.548 383.26C275.014 378.562 326.464 383.943 339.893 413.582C350.483 460.923 404.334 427.936 422.015 403.315C440.881 380.909 453.079 353.529 464.841 326.96C467.327 321.337 475.084 325.358 474.24 330.753C485.112 352.569 484.75 378.773 487.442 402.673C492.022 450.354 496.484 517.221 452.197 546.335C394.493 611.578 250.402 634.602 183.848 574.655C160.809 525.106 163.649 464.659 174.854 412.2" fill="black"/>
<path fill-rule="evenodd" clip-rule="evenodd" d="M206.955 267.03C182.545 267.03 168.616 272.28 163.511 272.69L163.358 272.701C161.234 272.836 159.33 273.014 157.332 273.787C149.984 276.618 148.787 284.327 153.075 289.185C153.376 299.238 152.054 310.984 154.322 321.069C157.119 363.587 177.108 370.762 188.47 373.38C194.174 374.696 200.935 375.219 206.994 373.831C217.331 373.445 227.55 370.208 236.294 364.572C248.47 356.715 257.515 344.64 260.45 330.31C261.841 323.479 262.491 316.369 261.734 309.425L261.621 308.469C265.579 306.575 270.166 306.217 274.894 306.049C277.153 305.969 279.379 305.897 281.541 305.993C283.655 306.229 285.744 306.544 287.839 306.972C290.127 307.662 292.287 308.802 294.282 310.607L294.42 313.241C294.794 319.822 295.658 326.423 296.99 332.879C298.957 342.406 302.121 351.504 308.855 358.261C311.134 361.667 313.955 364.706 317.379 367.339C329.817 376.918 346.716 380.435 362.225 379.111C393.711 376.423 411.91 351.42 416.105 340.733L416.355 340.086C419.385 332.141 421.8 321.832 431.374 320.125L433.41 319.759C437.779 318.939 441.81 317.797 444.372 313.533C445.495 311.671 446.072 309.59 446.214 307.467C447.708 307.582 449.201 307.692 450.688 307.798C462.552 310.308 533.712 312.436 539.392 312.436C539.392 312.436 550.311 317.033 554.92 313.471C558.116 310.994 559.167 307.694 557.408 303.954C554.754 298.328 542.51 294.943 537.074 293.872C537.074 293.872 449.339 294.601 443.025 293.403C439.118 289.373 432.129 289.924 426.29 289.287C421.455 285.839 414.692 283.53 409.35 281.984C408.262 281.571 407.183 281.172 406.135 280.796C396.342 277.307 386.162 275.459 375.828 274.467C365.17 273.454 354.482 273.912 343.887 275.364C339.422 275.97 334.999 276.753 330.607 277.778C322.743 278.815 314.924 280.523 307.057 282.55L305.483 282.959C297.199 285.132 288.685 287.011 280.109 285.538C273.128 284.347 266.414 281.659 259.976 278.753L259.138 278.373C244.984 271.908 222.879 267.03 206.955 267.03ZM331.458 290.667C336.681 289.518 338.911 297.573 333.672 298.725C329.962 299.541 326.817 301.412 324.693 304.583L324.469 304.928C321.619 309.465 314.41 305.277 317.281 300.71C320.51 295.57 325.529 291.971 331.458 290.667ZM178.497 285.673C180.339 284.376 183.125 285.339 184.194 287.172C185.37 289.191 184.599 291.438 182.875 292.759L182.699 292.888C181.117 294.003 179.577 296.002 179.384 298.05L179.366 298.306C179.159 303.666 170.832 303.693 171.04 298.306C171.243 293.036 174.294 288.633 178.497 285.673Z" fill="black"/>
<defs>
<filter id="filter0_d" x="12.0221" y="511.057" width="796.354" height="746.439" filterUnits="userSpaceOnUse" color-interpolation-filters="sRGB">
<feFlood flood-opacity="0" result="BackgroundImageFix"/>
<feColorMatrix in="SourceAlpha" type="matrix" values="0 0 0 0 0 0 0 0 0 0 0 0 0 0 0 0 0 0 127 0"/>
<feOffset dy="4"/>
<feGaussianBlur stdDeviation="2"/>
<feColorMatrix type="matrix" values="0 0 0 0 0 0 0 0 0 0 0 0 0 0 0 0 0 0 0.25 0"/>
<feBlend mode="normal" in2="BackgroundImageFix" result="effect1_dropShadow"/>
<feBlend mode="normal" in="SourceGraphic" in2="effect1_dropShadow" result="shape"/>
</filter>
</defs>
</svg>
