<svg width="611" height="621" viewBox="0 0 611 621" fill="none" xmlns="http://www.w3.org/2000/svg">
<path fill-rule="evenodd" clip-rule="evenodd" d="M44.4306 466.291C57.8943 385.157 194.131 431.378 283.446 406.295C372.761 381.213 478.429 264.399 548.361 321.62C618.294 378.842 543.886 517.162 383.491 548.377C223.096 579.591 30.9669 547.424 44.4306 466.291Z" fill="#F2F2F2"/>
<g opacity="0.5">
<path opacity="0.5" fill-rule="evenodd" clip-rule="evenodd" d="M80.0148 87.3539C78.716 88.8709 79.2205 94.2639 79.1933 96.2599C79.1515 99.3669 79.3167 102.446 79.5387 105.541C79.6874 107.614 80.5258 127.394 82.8589 125.875C84.1741 125.019 83.3496 119.297 83.3473 117.487C83.3419 113.464 83.1989 109.45 82.9697 105.435C82.7565 101.708 82.6227 98.0239 82.7454 94.2899C82.7753 93.3789 83.5041 83.2639 80.0148 87.3539Z" fill="#89C5CC"/>
<path opacity="0.5" fill-rule="evenodd" clip-rule="evenodd" d="M136.574 84.916C125.416 85.02 114.263 85.664 103.111 86.058C97.7445 86.248 92.3814 86.489 87.0206 86.837C85.194 86.956 81.2762 86.272 79.7543 87.411C76.3758 89.939 81.8243 90.531 83.2769 90.469C105.347 89.532 127.426 88.299 149.515 88.241C160.351 88.212 171.181 88.573 182.018 88.492C186.16 88.461 190.748 86.373 191.794 92.015C192.975 98.382 191.618 105.471 191.249 111.869C191.002 116.139 191.09 120.321 191.254 124.589C191.36 127.322 191.085 130.403 191.498 133.086C191.896 135.669 193.483 137.218 194.938 134.324C195.807 132.595 195.374 128.326 195.432 126.322C195.51 123.624 195.437 120.927 195.437 118.229C195.436 111.643 196.231 105.083 196.126 98.498C196.058 94.251 195.865 86.554 191.289 85.533C186.249 84.41 180.054 85.54 174.896 85.471C162.116 85.3 149.358 84.799 136.574 84.916Z" fill="#89C5CC"/>
<path opacity="0.5" fill-rule="evenodd" clip-rule="evenodd" d="M105.83 126.111C101.623 126.111 97.4151 126.141 93.2082 126.222C89.6002 126.292 83.9274 125.412 80.5692 126.922C78.2703 127.957 77.6596 130.96 80.5692 131.76C83.7426 132.633 88.5252 131.206 91.8454 131.137C108.494 130.793 125.303 130.345 141.929 131.577C157.507 132.731 173.386 133.851 188.988 132.632C190.3 132.53 196.995 132.218 193.94 129.281C192.158 127.567 184.934 128.695 182.618 128.613C174.449 128.324 166.271 128.26 158.104 127.898C150.044 127.54 142.019 126.48 133.956 126.217C124.589 125.912 115.2 126.111 105.83 126.111Z" fill="#89C5CC"/>
<path opacity="0.5" fill-rule="evenodd" clip-rule="evenodd" d="M101.62 98.109C108.178 98.444 114.666 109.573 108.031 114.951C101.806 119.997 90.1404 114.467 93.6017 104.681C93.1041 106.096 94.2307 103.144 94.2449 103.124C94.9031 102.217 96.085 101.212 96.8962 100.497C97.8246 99.678 98.7914 98.777 99.9108 98.367C100.646 98.098 100.53 99.111 101.62 98.109ZM98.4265 94.095C95.3574 95.498 93.9566 97.079 91.8475 99.942C90.388 101.923 88.5277 102.965 88.5441 105.642C88.5476 106.234 89.1981 106.885 89.3105 107.456C89.4657 108.245 89.2859 109.255 89.409 110.093C90.6786 118.739 99.4949 121.655 105.948 120.022C111.57 118.6 115.774 112.286 114.472 105.42C113.161 98.508 104.401 91.361 98.4265 94.095Z" fill="#89C5CC"/>
<path opacity="0.5" fill-rule="evenodd" clip-rule="evenodd" d="M95.6934 106.166C95.6934 109.276 99.8923 109.276 99.8923 106.166C99.8923 103.091 95.6934 102.959 95.6934 106.166Z" fill="#89C5CC"/>
<path opacity="0.5" fill-rule="evenodd" clip-rule="evenodd" d="M100.946 105.536C100.946 108.008 104.282 108.008 104.282 105.536C104.282 103.093 100.946 102.988 100.946 105.536Z" fill="#89C5CC"/>
<path opacity="0.5" fill-rule="evenodd" clip-rule="evenodd" d="M101.979 110.633C100.911 111.114 99.5558 110.118 98.6787 110.774C97.1254 111.938 98.6825 112.991 99.5151 113.458C103.264 115.563 103.931 109.759 101.979 110.633Z" fill="#89C5CC"/>
<path opacity="0.5" fill-rule="evenodd" clip-rule="evenodd" d="M159.231 103.74C159.12 103.795 158.722 103.992 159.231 103.74V103.74ZM142.906 100.948C140.1 101.689 137.731 104.755 134.683 104.345C132.347 104.03 130.765 101.393 128.459 101.009C125.508 100.518 117.479 108.394 121.701 109.745C124.164 110.533 125.53 105.267 127.706 104.987C129.427 104.765 131.768 107.235 133.551 107.587C136.879 108.243 139.164 106.098 142.085 104.715C145.259 103.212 147.065 104.566 149.826 106.236C152.005 107.555 154.057 108.413 156.55 107.869C158.89 107.359 161.83 104.543 164.185 104.832C166.492 105.115 168.138 107.932 170.511 108.194C171.49 108.301 172.946 108.691 172.781 106.925C172.65 105.511 171.301 105.75 170.458 105.236C168.288 103.914 166.258 101.572 163.64 101.772C161.67 101.922 159.877 103.542 158.062 104.317C152.117 106.854 148.775 99.408 142.906 100.948Z" fill="#89C5CC"/>
<path opacity="0.5" fill-rule="evenodd" clip-rule="evenodd" d="M147.872 145.748C136.405 145.872 124.899 146.071 113.463 147.147C110.752 147.402 83.0695 150.46 83.1221 150.68C83.2191 151.088 86.7796 151.71 86.7574 151.807C86.5174 151.11 85.9688 150.822 85.112 150.942C111.367 150.942 137.538 148.192 163.827 148.686C170.432 148.811 177.063 148.759 183.664 149.002C185.312 149.063 189.395 150.445 190.689 149.575C194.085 147.289 187.915 147.025 186.893 146.93C173.956 145.718 160.846 145.597 147.872 145.748Z" fill="#69A1AC"/>
<path opacity="0.5" fill-rule="evenodd" clip-rule="evenodd" d="M79.7236 152.268C78.0093 154.28 79.5879 161.515 79.6554 164.235C79.7531 168.167 79.6726 172.126 79.9674 176.048C80.304 180.527 80.8261 185.3 81.8305 189.646C82.3837 192.04 84.3253 195.845 85.0947 191.494C85.6441 188.387 84.8099 184.265 84.5197 181.1C84.1314 176.865 84.0375 172.686 84.0229 168.431C84.0099 164.723 83.9489 161 83.689 157.304C83.554 155.385 82.7291 148.77 79.7236 152.268Z" fill="#69A1AC"/>
<path opacity="0.5" fill-rule="evenodd" clip-rule="evenodd" d="M122.856 189.117C114.718 189.281 106.562 189.505 98.4385 190.1C95.1087 190.344 91.7816 190.707 88.4641 191.119C87.7871 191.203 80.2942 191.559 83.6424 194.795C85.1535 196.256 91.3699 194.236 93.4231 194.025C96.8763 193.671 100.329 193.441 103.792 193.269C111.816 192.871 119.865 192.519 127.897 192.682C142.567 192.98 157.142 193.113 171.815 192.73C173.9 192.676 190.232 193.186 190.787 190.648C191.234 188.603 185.393 189.541 184.328 189.578C180.422 189.715 176.515 189.683 172.606 189.66C156.051 189.56 139.399 188.79 122.856 189.117Z" fill="#69A1AC"/>
<path opacity="0.5" fill-rule="evenodd" clip-rule="evenodd" d="M188.022 148.875C188.28 157.353 189.514 165.822 189.909 174.326C190.089 178.213 190.301 182.097 190.464 185.986C190.516 187.24 190.084 190.263 191.352 190.984C193.091 191.974 193.325 189.98 193.65 188.631C194.591 184.735 193.955 179.673 193.869 175.671C193.787 171.795 193.781 167.913 193.537 164.044C193.287 160.092 192.607 156.214 192.291 152.276C192.158 150.61 192.624 147.838 191.113 146.805C189.807 145.911 187.965 147.037 188.022 148.875Z" fill="#69A1AC"/>
<path opacity="0.5" fill-rule="evenodd" clip-rule="evenodd" d="M108.035 162.978C108.066 163.006 108.097 163.034 108.128 163.063C108.097 163.034 108.066 163.007 108.035 162.978ZM101.12 160.466C103.698 161.328 105.816 161.007 108.28 163.204C110.322 165.025 112.417 167.69 113.094 170.635C114.659 177.439 109.354 181.168 104.38 181.242C99.2855 181.317 91.7451 179.934 92.0061 172.293C92.2062 166.422 95.8695 160.694 101.12 160.466ZM101.301 156.621C94.614 157.011 89.2199 165.798 89.2778 173.195C89.3476 182.16 98.0285 184.47 104.195 184.532C111.155 184.602 118.095 178.978 116.23 169.82C114.736 162.482 107.732 156.23 101.301 156.621Z" fill="#69A1AC"/>
<path opacity="0.5" fill-rule="evenodd" clip-rule="evenodd" d="M94.5752 168.658C94.5752 171.158 97.9506 171.158 97.9506 168.658C97.9506 166.186 94.5752 166.08 94.5752 168.658Z" fill="#69A1AC"/>
<path opacity="0.5" fill-rule="evenodd" clip-rule="evenodd" d="M101.655 167.561C101.655 170.081 105.057 170.081 105.057 167.561C105.057 165.07 101.655 164.963 101.655 167.561Z" fill="#69A1AC"/>
<path opacity="0.5" fill-rule="evenodd" clip-rule="evenodd" d="M97.7514 173.263C95.5544 175.829 103.273 180.329 105.093 176.758C106.588 173.826 103.333 174.798 102.179 174.64C100.925 174.467 98.7749 172.068 97.7514 173.263Z" fill="#69A1AC"/>
<path opacity="0.5" fill-rule="evenodd" clip-rule="evenodd" d="M159.458 167.612C159.246 167.716 159.246 167.716 159.458 167.612V167.612ZM130.475 163.434C128.25 163.922 120.95 166.804 120.851 169.893C120.671 175.506 127.821 169.756 129.374 169.018C133.591 167.012 135.807 171.104 140.044 171.319C143.724 171.507 147.107 167.822 150.574 168.258C154.205 168.714 155.952 173.235 160.145 170.835C162.363 169.565 162.307 167.608 159.817 167.423C158.312 167.312 157.278 168.039 155.709 167.282C153.256 166.097 152.267 164.169 149.331 164.475C147.115 164.706 145.112 166.168 142.95 166.733C137.997 168.028 135.25 162.387 130.475 163.434Z" fill="#69A1AC"/>
<path opacity="0.5" fill-rule="evenodd" clip-rule="evenodd" d="M176.544 170.05C176.391 170.125 176.391 170.125 176.544 170.05V170.05ZM177.105 167.712C177.13 167.725 177.298 167.997 177.105 167.712V167.712ZM174.555 165.928C174.459 166.014 174.459 166.014 174.555 165.928V165.928ZM174.611 165.906C175.105 166.252 179.081 169.433 176.193 170.183C174.727 170.563 173.514 167.111 174.611 165.906ZM173.294 162.382C166.926 165.78 173.779 177.939 178.777 172.999C180.88 170.92 181.157 166.718 179.111 164.552C177.885 163.254 174.958 161.492 173.294 162.382Z" fill="#69A1AC"/>
<path opacity="0.5" fill-rule="evenodd" clip-rule="evenodd" d="M113.511 210.299C105.564 210.301 97.5478 210.106 89.6117 210.657C88.2761 210.75 83.1883 210.453 82.5002 212.086C81.2413 215.075 86.4763 213.591 87.2368 213.502C103.039 211.651 119.545 212.716 135.399 213.243C148.365 213.675 161.261 213.942 174.212 214.724C177.616 214.93 181.017 215.157 184.419 215.397C185.528 215.475 188.318 216.335 188.552 214.263C188.768 212.345 185.287 212.778 184.418 212.725C177.503 212.299 170.593 211.853 163.68 211.397C147.041 210.299 130.177 210.295 113.511 210.299Z" fill="#89C5CC"/>
<path opacity="0.5" fill-rule="evenodd" clip-rule="evenodd" d="M82.245 213.621C80.7607 215.348 81.4565 221.941 81.4151 224.12C81.3426 227.932 81.1889 231.74 81.1199 235.55C81.0482 239.533 81.1479 243.533 81.3491 247.51C81.4335 249.179 82.6046 257.249 84.4485 252.631C85.2723 250.567 84.4286 244.82 84.4412 242.481C84.4638 238.226 84.6597 233.988 84.8407 229.738C84.9963 226.085 85.0021 222.428 85.1385 218.774C85.1819 217.609 85.2995 210.036 82.245 213.621Z" fill="#89C5CC"/>
<path opacity="0.5" fill-rule="evenodd" clip-rule="evenodd" d="M189.889 247.665C182.155 248.592 174.297 248.154 166.534 248.839C159.843 249.429 153.159 249.671 146.451 249.837C131.262 250.212 116.046 250.578 100.901 252.059C97.4493 252.397 94.0018 252.755 90.5409 252.936C88.8101 253.026 81.5472 252.105 81.0063 254.24C80.0851 257.876 87.8521 256.437 89.5274 256.38C93.2114 256.255 96.8781 255.944 100.552 255.616C115.995 254.24 131.497 253.828 146.972 253.256C155.389 252.945 163.747 252.224 172.145 251.568C176.331 251.242 180.528 251.231 184.714 250.915C185.809 250.832 189.686 250.995 190.473 249.964C191.015 249.256 191.151 247.527 189.889 247.665Z" fill="#89C5CC"/>
<path opacity="0.5" fill-rule="evenodd" clip-rule="evenodd" d="M187.268 214.24C187.534 222.919 187.953 231.59 188.203 240.269C188.278 242.878 187.604 247.556 188.847 249.857C190.843 253.558 192.402 249.641 192.768 247.335C193.922 240.057 192.681 232.017 192.359 224.694C192.236 221.9 192.977 215.682 191.824 213.182C190.725 210.8 187.17 211.039 187.268 214.24Z" fill="#89C5CC"/>
<path opacity="0.5" fill-rule="evenodd" clip-rule="evenodd" d="M174.283 226.601C177.246 227.54 177.679 235.078 174.336 235.635C169.359 236.465 171.536 228.155 174.283 226.601ZM173.453 223.603C172.549 223.57 170.463 223.278 169.906 224.139C169.44 224.86 169.911 226.379 169.857 227.065C169.661 229.518 167.957 230.934 168.718 233.829C169.236 235.795 170.62 237.641 172.308 238.324C181.213 241.925 181.104 221.791 173.453 223.603Z" fill="#89C5CC"/>
<path opacity="0.5" fill-rule="evenodd" clip-rule="evenodd" d="M93.0555 224.955C93.0332 224.988 93.011 225.022 92.9891 225.055C93.011 225.022 93.0332 224.988 93.0555 224.955ZM100.049 220.601C100.014 220.252 99.9799 219.903 99.945 219.555C104.773 222.222 108.615 227.183 107.012 233.841C105.789 238.922 101.369 240.723 97.2516 239.469C92.6936 238.08 90.5154 233.684 91.7444 228.286C92.3114 225.795 94.0526 222.448 96.3032 221.647C97.3509 221.275 99.6679 222.225 100.049 220.601ZM97.2263 218.492C96.005 218.588 94.8162 219.184 93.8195 219.998C94.7526 219.074 95.9961 218.524 97.2263 218.492ZM97.2612 215.211C94.2442 215.319 92.2673 217.456 90.4778 220.023C89.9162 220.828 88.0175 222.964 88.2525 224.05C88.4384 224.908 88.9249 226.163 89.9492 225.206C84.5842 237.718 98.4438 248.39 106.904 239.689C114.801 231.569 106.967 214.83 97.2612 215.211Z" fill="#89C5CC"/>
<path opacity="0.5" fill-rule="evenodd" clip-rule="evenodd" d="M94.5195 226.833C94.5195 228.499 96.7299 228.499 96.7299 226.833C96.7299 225.167 94.5195 225.167 94.5195 226.833Z" fill="#89C5CC"/>
<path opacity="0.5" fill-rule="evenodd" clip-rule="evenodd" d="M98.292 227.118C98.292 228.811 100.538 228.811 100.538 227.118C100.538 225.424 98.292 225.424 98.292 227.118Z" fill="#89C5CC"/>
<path opacity="0.5" fill-rule="evenodd" clip-rule="evenodd" d="M100.004 233.064C98.953 233.164 95.1069 232.746 94.4318 233.823C93.3036 235.623 95.1042 235.686 95.9886 235.88C96.7852 236.055 100.248 235.956 100.736 235.128C101.167 234.397 101.066 232.959 100.004 233.064Z" fill="#89C5CC"/>
<path opacity="0.5" fill-rule="evenodd" clip-rule="evenodd" d="M146.344 228.397C146.163 228.485 146.163 228.485 146.344 228.397V228.397ZM131.811 227.153C129.443 227.357 127.438 228.951 125.174 229.587C122.758 230.266 121.712 229.017 119.515 228.2C117.23 227.35 115.604 227.686 113.767 229.512C112.726 230.547 110.443 232.929 111.093 234.768C112.583 238.976 115.955 232.129 117.541 231.811C120.015 231.314 122.216 233.845 125.069 233.121C127.654 232.466 129.948 230.388 132.648 230.366C134.906 230.347 137.034 231.793 139.264 232.143C142.667 232.677 144.901 231.263 148.047 230.213C150.775 229.303 152.688 230.503 155.253 231.513C156.426 231.974 160.339 233.652 159.619 230.61C159.415 229.751 154.259 228.215 153.459 227.919C150.64 226.877 148.855 227.283 146.17 228.481C143.93 229.481 142.046 229.968 139.645 229.418C136.999 228.812 134.594 226.906 131.811 227.153Z" fill="#89C5CC"/>
</g>
<g opacity="0.5">
<path opacity="0.5" fill-rule="evenodd" clip-rule="evenodd" d="M240.746 87.6821C241.128 78.0621 241.654 68.4561 241.931 58.8307C242.068 54.0609 242.175 49.2907 242.279 44.5201C242.302 43.4578 242.326 42.3959 242.346 41.3337C242.414 37.7248 242.048 37.4295 245.152 37.1092C258.997 35.679 272.898 35.205 286.761 33.9111C303.479 32.3506 320.285 31.2731 337.051 30.7901C344.502 30.5751 351.984 30.1297 359.435 30.4008C361.087 30.4608 364.327 29.9581 364.977 31.4599C365.258 32.1087 364.669 34.3412 364.594 35.0899C364.361 37.4286 364.143 39.7754 364.008 42.1258C363.215 55.9879 363.688 70.1991 365.982 83.8511C360.601 80.3011 353.802 77.2461 347.53 77.8531C341.136 78.4711 336.353 82.7941 331.235 86.7731C328.34 89.0231 327.365 89.6151 324.476 87.4351C321.987 85.5561 319.632 83.4071 317.284 81.2991C313.66 78.0451 310.24 74.5171 306.726 71.1051C300.265 64.8331 291.363 55.905 282.439 58.5336C276.063 60.4118 270.176 64.5121 264.642 68.5251C256.42 74.4871 248.978 81.7881 240.746 87.6821ZM351.555 26.1288C319.789 26.1288 288.26 29.7323 256.584 31.6817C253.275 31.8851 249.978 32.1848 246.682 32.5572C244.485 32.8054 239.112 31.7632 237.672 33.9599C236.712 35.4255 237.537 35.6454 237.672 37.0379C237.843 38.7929 237.742 40.8722 237.698 42.7297C237.592 47.2056 237.481 51.681 237.394 56.1573C237.066 73.0751 236.861 89.9891 237.446 106.903C237.574 110.591 238.723 115.698 238.094 119.283C237.639 121.878 236.118 123.457 239.626 123.936C243.077 124.409 247.297 123.208 250.752 122.823C254.226 122.436 257.7 122.017 261.179 121.681C276.303 120.223 291.573 120.443 306.737 119.958C322.038 119.469 337.344 119.438 352.649 119.428C359.053 119.424 366.371 119.845 372.62 117.783C374.818 117.057 375.174 116.7 374.632 114.147C374.529 113.663 373.865 113.484 373.67 112.609C373.405 111.417 373.541 109.969 373.479 108.729C373.277 104.679 373.206 100.622 373.043 96.5691C372.771 89.7971 371.774 83.2251 371.036 76.5221C370.184 68.7801 370.228 60.9203 370.211 53.1281C370.201 48.8059 370.296 44.4981 370.592 40.188C370.783 37.4237 371.946 33.2964 371.356 30.7184C371.062 29.4348 370.581 28.4169 369.439 27.8645C368.716 27.5141 368.108 27.7883 367.393 27.6996C366.545 27.5943 366.016 27.455 364.999 27.1857C360.646 26.0311 355.991 26.1288 351.555 26.1288Z" fill="#69A1AC"/>
<path opacity="0.5" fill-rule="evenodd" clip-rule="evenodd" d="M333.975 44.5331C333.973 47.2271 333.614 51.2025 334.675 53.7393C336.021 56.9571 337.705 55.9512 338.152 52.9274C338.407 51.1949 338.401 46.0676 337.925 44.5331C337.252 42.3611 333.975 40.8817 333.975 44.5331Z" fill="#89C5CC"/>
<path opacity="0.5" fill-rule="evenodd" clip-rule="evenodd" d="M337.838 45.5733C335.677 45.6624 329.382 45.0554 327.92 47.089C325.411 50.5769 329.778 51.1947 331.653 50.9994C333.823 50.7736 340.528 51.3247 341.981 49.2888C344.411 45.8829 339.537 45.5007 337.838 45.5733Z" fill="#89C5CC"/>
<path opacity="0.5" fill-rule="evenodd" clip-rule="evenodd" d="M253.964 135.573C263.466 137.504 260.51 154.457 251.519 150.53C248.386 149.162 243.77 145.209 245.501 140.551C246.795 137.07 251.01 135.241 253.964 135.573ZM250.03 130.302C243.85 131.519 239.625 139.344 241.744 146.17C243.788 152.755 251.541 157.578 257.258 155.211C262.716 152.952 265.439 144.454 263.599 138.237C261.676 131.742 255.413 129.241 250.03 130.302Z" fill="#89C5CC"/>
<path opacity="0.5" fill-rule="evenodd" clip-rule="evenodd" d="M307.825 137.556C305.46 137.786 303.415 139.724 301.035 140.067C298.809 140.388 296.964 139.497 294.88 138.784C292.361 137.924 290.051 137.545 287.477 138.31C285.509 138.895 283.569 140.461 281.526 140.65C277.505 141.021 272.831 135.653 269.692 141.725C268.187 144.636 270.372 146.511 272.623 145.153C274.97 143.738 273.818 143.231 276.729 144.067C279.158 144.764 281.121 145.143 283.554 144.166C285.758 143.282 287.692 141.663 290.087 141.481C292.433 141.303 294.473 142.553 296.715 143.093C299.472 143.756 301.911 143.254 304.523 142.243C307.008 141.281 307.999 140.755 310.507 141.613C312.094 142.156 315.562 143.882 317.108 142.491C319.78 140.086 316.203 139.735 314.794 139.393C312.526 138.843 310.179 137.33 307.825 137.556Z" fill="#89C5CC"/>
<path opacity="0.5" fill-rule="evenodd" clip-rule="evenodd" d="M361.963 135.94C361.982 135.957 362.001 135.974 362.019 135.991C362.001 135.974 361.982 135.957 361.963 135.94ZM359.641 135.372C363.094 135.632 366.829 142.994 362.253 143.255C359.031 143.439 355.428 136.993 359.641 135.372ZM359.156 129.347C348.235 132.916 353.227 150.933 363.761 148.852C368.546 147.906 370.167 141.42 368.586 136.618C367.906 134.556 366.582 132.817 364.999 131.63C363.831 130.755 360.49 128.912 359.156 129.347Z" fill="#89C5CC"/>
<path opacity="0.5" fill-rule="evenodd" clip-rule="evenodd" d="M241.721 244.497C241.399 242.82 241.573 240.258 241.555 239.665C241.471 236.888 241.441 234.109 241.35 231.333C241.132 224.716 240.988 218.062 240.552 211.46C240.136 205.149 239.084 199.03 239.054 192.672C239.033 188.373 238.012 177.478 241.23 174.557C246.761 170.781 244.574 184.105 244.483 186.411C244.21 193.353 244.58 199.99 245.177 206.889C245.724 213.212 245.095 219.506 244.885 225.83C244.774 229.187 244.713 232.539 244.497 235.89C244.43 236.936 244.533 241.645 244.065 244.153C245.271 244.093 246.418 244.156 247.058 244.133C251.538 243.975 256.019 243.836 260.498 243.639C277.73 242.88 294.972 243.223 312.201 242.266C328.496 241.359 344.852 241.167 361.16 240.933C362.586 241.078 363.224 242.831 362.309 244.178C361.413 245.495 357.259 245.206 355.965 245.329C351.371 245.76 346.787 245.955 342.18 246.006C332.478 246.114 322.813 246.601 313.127 247.247C295.918 248.395 278.683 248.3 261.464 249.12C257.284 249.319 253.104 249.467 248.923 249.596C246.718 249.663 240.944 251.217 239.851 248.135C239.08 245.956 240.152 244.953 241.721 244.497ZM337.046 166.084C342.259 166.027 347.444 166.134 352.65 166.483C354.959 166.638 357.267 166.788 359.577 166.902C360.912 166.969 363.961 166.456 365.132 167.181C369.728 170.026 360.365 170.338 359.226 170.315C354.45 170.221 349.683 169.786 344.907 169.649C327.341 169.144 309.644 170.395 292.093 171.237C283.651 171.643 275.213 171.701 266.773 172.255C262.161 172.559 257.55 172.905 252.937 173.19C250.81 173.321 248.682 173.448 246.552 173.511C245.24 173.55 242.569 174.186 241.356 173.606C240.323 173.111 239.488 172.421 240.056 170.956C240.667 169.381 243.328 170.051 244.454 170.026C248.519 169.934 252.576 169.667 256.634 169.376C265.848 168.716 275.043 167.944 284.276 167.76C301.871 167.409 319.443 166.275 337.046 166.084ZM361.249 173.1C361.252 170.277 364.145 169.709 365.428 171.629C366.655 173.466 365.865 179.026 365.895 181.223C365.994 188.463 366.579 195.662 367.134 202.869C367.686 210.017 368.076 217.168 368.502 224.327C368.699 227.636 370.872 240.841 367.714 242.769C363.683 245.229 364.443 232.712 364.33 230.43C363.968 223.085 363.513 215.73 362.945 208.404C362.026 196.559 361.241 184.993 361.249 173.1Z" fill="#69A1AC"/>
<path opacity="0.5" fill-rule="evenodd" clip-rule="evenodd" d="M308.012 207.1C313.539 209.398 319.035 211.799 324.507 214.273C327.435 215.597 330.347 216.963 333.268 218.305C334.731 218.977 340.816 220.665 341.166 222.375C341.659 224.789 335.174 221.824 334.142 221.438C331.227 220.348 328.349 219.127 325.47 217.913C319.03 215.198 312.617 212.397 306.151 209.765C305.546 209.518 304.941 209.273 304.336 209.028C297.473 212.635 290.623 216.277 283.796 219.977C280.135 221.961 276.494 223.991 272.863 226.048C270.171 227.574 265.299 231.926 262.334 231.85C261.212 231.821 260.456 231.54 260.339 229.948C260.19 227.914 262.991 227.077 264.123 226.415C268.004 224.144 271.908 221.93 275.825 219.745C283.602 215.404 291.453 211.236 299.331 207.151C299.376 207.128 299.422 207.104 299.467 207.081C295.098 205.35 290.716 203.661 286.325 202.008C283.815 201.063 266.22 195.982 266.862 193.254C267.582 190.197 283.166 197.406 285.563 198.299C291.464 200.5 297.349 202.763 303.203 205.129C317.251 197.743 331.448 189.874 346.101 184.501C347.024 184.163 347.607 185.276 347.398 186.21C347.117 187.461 343.831 188.473 342.919 188.95C339.31 190.835 335.683 192.674 332.074 194.562C324.212 198.672 316.335 202.744 308.474 206.858C308.32 206.938 308.166 207.019 308.012 207.1Z" fill="#89C5CC"/>
<path opacity="0.5" fill-rule="evenodd" clip-rule="evenodd" d="M256.048 258.813C259.641 259.55 262.176 263.583 261.782 267.807C261.249 273.514 256.388 276.13 251.897 275.385C246.802 274.54 245.73 269.5 248.199 264.651C248.746 263.577 249.374 262.293 250.368 261.727C251.051 261.339 251.921 261.682 252.471 261.369C254.399 260.271 253.24 258.521 256.048 258.813ZM254.412 255.085C250.028 255.74 241.927 261.677 242.337 267.617C242.693 268.306 243.228 268.587 243.942 268.462C243.77 269.749 243.826 271.022 244.11 272.281C244.527 273.916 245.357 275.256 246.471 276.321C248.764 278.514 251.898 279.052 254.753 278.667C260.084 277.95 264.286 273.686 264.585 267.198C264.878 260.865 260.153 254.236 254.412 255.085Z" fill="#89C5CC"/>
<path opacity="0.5" fill-rule="evenodd" clip-rule="evenodd" d="M275.647 262.814C273.68 264.034 270.568 265.908 269.414 268.225C268.195 270.672 269.458 273.35 272.025 272.192C274.064 271.273 275.36 268.353 277.535 267.417C279.454 266.591 280.227 267.012 282.255 267.835C284.345 268.682 286.171 269.501 288.431 269.293C291.27 269.032 293.729 267.105 296.508 266.667C298.848 266.298 300.778 267.363 303.019 267.787C305.619 268.279 307.319 267.127 309.751 266.528C311.406 266.119 314.322 267.779 315.529 267.158C318.243 265.762 315.372 264.055 313.87 263.491C311.339 262.541 309.782 263.38 307.375 264.167C304.761 265.023 303.633 264.38 301.135 263.594C296.081 262.005 292.176 265.848 287.386 265.149C282.95 264.502 280.296 259.934 275.647 262.814Z" fill="#89C5CC"/>
<path opacity="0.5" fill-rule="evenodd" clip-rule="evenodd" d="M358.289 259.975C363.154 265.312 357.689 272.905 352.324 268.64C350.437 267.138 350.407 264.727 351.876 262.57C353.22 260.597 356.172 259.827 358.289 259.975ZM356.486 255.662C351.941 256.697 347.653 259.137 347.242 265.275C346.84 271.264 352.09 274.045 356.5 273.652C366.401 272.77 365.685 253.581 356.486 255.662Z" fill="#89C5CC"/>
</g>
<path opacity="0.5" fill-rule="evenodd" clip-rule="evenodd" d="M464.145 56.7584C460.509 56.8406 451.532 58.388 450.197 63.4203C449.184 67.24 452.193 66.402 453.806 65.012C455.988 63.1319 457.902 62.007 460.605 61.4351C470.904 59.2553 480.8 67.072 491 68.061C494.864 68.435 499.527 68.679 503.216 67.215C505.844 66.173 506.187 63.899 503.188 63.5526C500.641 63.2585 497.822 64.186 495.21 64.159C484.403 64.051 474.797 56.5206 464.145 56.7584Z" fill="#C1DEE2"/>
<g opacity="0.5">
<path opacity="0.5" fill-rule="evenodd" clip-rule="evenodd" d="M82.1618 295.748C75.2061 295.839 68.2539 296.14 61.312 296.654C54.7104 297.143 47.5476 296.772 41.0536 298.269C39.2096 298.694 36.7186 300.661 39.1705 302.824C40.8939 304.344 47.1992 302.595 49.2572 302.447C56.8361 301.902 64.4189 301.249 72.0085 300.935C79.1935 300.638 86.3781 300.533 93.5665 300.45C94.664 300.437 96.4858 300.025 97.5788 300.398C99.1491 300.934 98.7766 301.08 98.8941 303.412C99.1073 307.638 99.0484 311.88 98.9768 316.11C98.9075 320.203 98.7781 324.296 98.7907 328.392C98.7996 331.313 98.0014 337.119 99.2543 339.657C101.058 343.309 102.929 339.342 103.064 336.915C103.322 332.273 103.206 327.574 103.207 322.926C103.208 318.563 103.235 314.2 103.104 309.84C103.008 306.69 103.393 301.191 101.943 298.328C100.466 295.411 96.9096 296.04 94.3149 295.901C90.2674 295.683 86.2127 295.699 82.1618 295.748Z" fill="#89C5CC"/>
<path opacity="0.5" fill-rule="evenodd" clip-rule="evenodd" d="M37.9063 301.012C37.914 309.21 37.1036 317.352 36.8766 325.54C36.7724 329.304 36.5611 333.438 37.375 337.134C38.1965 340.865 40.8058 341.673 41.1063 337.508C41.7149 329.073 41.5656 320.326 42.0396 311.823C42.2068 308.821 43.2956 303.319 42.2792 300.508C41.3842 298.032 37.9025 297.557 37.9063 301.012Z" fill="#89C5CC"/>
<path opacity="0.5" fill-rule="evenodd" clip-rule="evenodd" d="M103.132 337.145C91.0526 339.016 78.4244 338.334 66.2586 338.628C60.4219 338.769 54.5863 338.778 48.7488 338.849C46.7115 338.874 41.5378 337.967 39.7753 339.307C36.9697 341.441 40.0138 343.087 41.8712 343.134C53.3912 343.429 65.0394 342.809 76.557 342.367C81.7319 342.169 86.9236 342.071 92.0846 341.557C95.262 341.24 98.7341 340.933 101.819 339.934C102.476 339.72 103.908 339.765 104.055 338.716C104.146 338.067 103.981 337.008 103.132 337.145Z" fill="#89C5CC"/>
<path opacity="0.5" fill-rule="evenodd" clip-rule="evenodd" d="M52.9011 349.06C49.5438 349.083 39.4269 347.258 38.0365 351.089C36.1829 356.198 43.4138 355.006 45.3585 354.947C49.7754 354.815 54.1892 354.8 58.6073 354.803C62.9422 354.805 67.2768 354.772 71.611 354.651C72.8666 354.616 75.7894 355.226 76.5117 353.457C77.0607 352.112 76.627 351.051 75.6144 350.339C73.1782 348.626 66.8492 349.62 63.9969 349.465C60.3039 349.266 56.5986 349.06 52.9011 349.06Z" fill="#89C5CC"/>
<path opacity="0.5" fill-rule="evenodd" clip-rule="evenodd" d="M93.7449 350.006C91.8262 350.14 87.9453 349.214 86.2264 350.241C84.2729 351.409 84.9612 353.238 86.6479 354.042C87.8159 354.598 92.6071 354.306 93.7449 353.662C94.9308 352.989 96.2718 349.824 93.7449 350.006Z" fill="#89C5CC"/>
<path opacity="0.5" fill-rule="evenodd" clip-rule="evenodd" d="M114.779 301.817C112.73 302.475 113.352 316.088 113.299 318.246C113.154 324.159 112.586 331.595 114.265 337.29C115.336 340.92 117.393 340.428 117.042 336.606C116.734 333.251 116.206 329.936 115.977 326.559C115.46 318.92 114.758 310.771 115.246 303.125C115.454 303.569 117.398 307.69 117.855 307.382C117.717 307.478 115.613 301.559 114.779 301.817Z" fill="#89C5CC"/>
<path opacity="0.5" fill-rule="evenodd" clip-rule="evenodd" d="M137.83 296.803C133.683 296.875 129.536 296.961 125.39 297.095C122.094 297.203 116.914 296.569 113.891 298.191C110.291 300.123 111.999 304.428 115.38 304.519C118.371 304.599 121.561 303.81 124.579 303.689C132.731 303.362 140.897 303.293 149.053 303.211C156.429 303.137 164.118 304.057 171.43 302.761C172.514 314.03 169.581 325.345 170.579 336.743C170.733 338.512 170.664 341.012 172.589 341.415C175.019 341.923 175.119 339.107 175.211 337.091C175.474 331.333 175.332 325.571 175.692 319.806C176.026 314.463 176.683 309.003 176.128 303.652C175.445 297.067 172.748 297.595 167.981 297.321C157.914 296.743 147.909 296.63 137.83 296.803Z" fill="#89C5CC"/>
<path opacity="0.5" fill-rule="evenodd" clip-rule="evenodd" d="M123.932 336.815C121.819 336.877 118.309 336.115 116.955 338.486C115.547 340.953 117.218 343.105 119.266 343.612C121.691 344.211 124.853 343.389 127.369 343.38C129.99 343.371 132.611 343.405 135.232 343.418C146.468 343.469 157.752 343.668 168.98 343.124C170.548 343.049 174.998 343.664 176.084 341.904C177.047 340.343 176.373 338.943 175.105 338.148C173.024 336.843 168.75 337.339 166.435 337.236C163.577 337.108 160.715 337.067 157.855 337.015C146.566 336.811 135.219 336.488 123.932 336.815Z" fill="#89C5CC"/>
<path opacity="0.5" fill-rule="evenodd" clip-rule="evenodd" d="M133.437 348.22C129.232 348.304 124.746 348.088 120.583 348.834C116.922 349.49 116.472 353.63 120.412 354.115C124.033 354.561 128.423 353.728 132.062 353.455C133.354 353.358 134.857 353.496 135.476 351.824C136.123 350.077 134.887 348.402 133.437 348.22Z" fill="#89C5CC"/>
<path opacity="0.5" fill-rule="evenodd" clip-rule="evenodd" d="M165.225 348.654C162.98 348.72 156.425 347.591 155.313 350.59C153.463 355.584 162.337 353.687 164.039 353.613C166.185 353.521 174.548 354.987 174.55 350.99C174.551 347.07 167.28 348.595 165.225 348.654Z" fill="#89C5CC"/>
<path opacity="0.5" fill-rule="evenodd" clip-rule="evenodd" d="M37.5436 373.469C37.549 382.554 37.0659 391.724 37.7741 400.785C38.067 404.533 38.0168 411.712 39.8719 414.89C41.1888 417.145 43.0152 416.987 43.7345 414.279C44.2153 412.468 43.4462 408.848 43.3605 406.911C43.2778 405.052 43.1813 403.195 43.1078 401.335C42.9191 396.546 42.934 391.764 42.9903 386.971C43.0385 382.861 43.8842 377.422 43.0868 373.469C42.3433 369.785 37.5436 368.924 37.5436 373.469Z" fill="#69A1AC"/>
<path opacity="0.5" fill-rule="evenodd" clip-rule="evenodd" d="M115.567 365.477C102.098 365.873 88.5986 365.52 75.1413 366.3C68.5045 366.684 61.8937 367.529 55.2902 368.371C52.0459 368.786 48.8035 369.212 45.5649 369.679C44.5876 369.82 36.4666 370.188 39.5211 373.802C40.8548 375.38 45.099 373.732 46.7784 373.499C50.03 373.05 53.2881 372.658 56.5443 372.256C62.7405 371.489 68.9443 370.762 75.1669 370.359C89.8221 369.409 104.538 369.694 119.207 369.061C123.176 368.89 127.132 368.767 131.102 368.95C132.144 368.998 139.804 369.453 136.478 366.143C134.906 364.576 128.976 365.385 127.011 365.338C123.197 365.245 119.38 365.365 115.567 365.477Z" fill="#69A1AC"/>
<path opacity="0.5" fill-rule="evenodd" clip-rule="evenodd" d="M136.544 413.405C136.542 413.409 136.54 413.412 136.538 413.416C135.804 414.682 133.092 414.329 131.905 414.424C128.29 414.711 124.743 415.196 121.161 415.825C114.024 417.077 106.949 417.846 99.7352 418.055C85.4666 418.468 71.1391 418.082 56.892 419.226C53.7365 419.479 50.6289 419.914 47.525 420.609C45.3085 421.106 41.0371 422.807 40.778 418.522C40.4652 413.359 51.5361 413.368 54.7016 413.023C68.2933 411.543 82.1086 411.855 95.742 412.078C102.334 412.185 108.915 412.421 115.502 411.949C122.083 411.478 128.887 411.602 135.42 410.774C134.579 406.956 134.702 402.182 134.466 398.282C133.86 388.268 134.022 378.219 133.631 368.195C133.46 363.778 138.601 363.109 140.125 366.684C141.665 370.295 140.665 377.46 140.764 381.464C140.995 390.733 142.464 401.111 140.912 410.279C140.372 413.467 138.074 415.143 136.544 413.405Z" fill="#69A1AC"/>
<path opacity="0.5" fill-rule="evenodd" clip-rule="evenodd" d="M144.83 371.43C143.01 371.719 141.493 373.542 142.305 375.853C143.328 378.763 146.376 377.626 148.389 377.442C154.788 376.855 161.469 378.027 167.791 377.143C169.517 376.901 172.022 375.801 170.472 373.086C169.307 371.046 165.062 371.404 163.257 371.209C157.085 370.54 150.994 370.719 144.83 371.43Z" fill="#C1DEE2"/>
<path opacity="0.5" fill-rule="evenodd" clip-rule="evenodd" d="M155.63 384.126C153.148 384.322 147.371 384.168 146.326 387.472C144.45 393.4 151.798 391.311 154.035 390.974C156.634 390.582 162.76 391.631 164.144 388.682C166.618 383.408 157.806 383.951 155.63 384.126Z" fill="#C1DEE2"/>
<path opacity="0.5" fill-rule="evenodd" clip-rule="evenodd" d="M149.248 397.135C148.071 398.513 148.069 400.974 149.248 402.352C150.692 404.04 153.837 403.689 155.734 403.813C158.38 403.986 165.978 405.623 167.292 401.978C169.064 397.059 162.184 397.162 159.92 396.883C157.305 396.561 151.416 394.597 149.248 397.135Z" fill="#C1DEE2"/>
<path opacity="0.5" fill-rule="evenodd" clip-rule="evenodd" d="M56.5068 312.943C56.5068 318.231 63.5647 318.231 63.5647 312.943C63.5647 307.684 56.5068 307.604 56.5068 312.943Z" fill="#89C5CC"/>
<path opacity="0.5" fill-rule="evenodd" clip-rule="evenodd" d="M69.8945 313.003C69.8945 319.048 77.9335 319.036 77.9335 313.003C77.9335 306.979 69.8945 306.917 69.8945 313.003Z" fill="#89C5CC"/>
<path opacity="0.5" fill-rule="evenodd" clip-rule="evenodd" d="M61.796 321.041C57.8883 322.303 61.4882 326.179 63.3028 327.064C66.1865 328.471 70.1222 329.508 73.0067 327.399C74.1543 326.559 75.0861 325.444 74.245 323.814C73.3489 322.08 72.122 322.851 70.7576 323.011C69.0292 323.215 67.6324 323.183 65.9633 322.535C64.7176 322.051 63.1546 320.603 61.796 321.041Z" fill="#89C5CC"/>
<path opacity="0.5" fill-rule="evenodd" clip-rule="evenodd" d="M132.678 313.278C132.678 316.854 137.424 316.854 137.424 313.278C137.424 309.701 132.678 309.701 132.678 313.278Z" fill="#89C5CC"/>
<path opacity="0.5" fill-rule="evenodd" clip-rule="evenodd" d="M143.174 313.816C143.174 317.79 148.446 317.79 148.446 313.816C148.446 309.842 143.174 309.842 143.174 313.816Z" fill="#89C5CC"/>
<path opacity="0.5" fill-rule="evenodd" clip-rule="evenodd" d="M142.783 322.44C140.014 322.858 132.003 323.808 131.555 327.803C130.864 333.966 139.641 328.978 141.644 328.494C144.196 327.878 146.474 328.039 149.021 328.158C150.42 328.224 152.28 328.489 152.133 325.996C151.893 321.903 145.204 322.077 142.783 322.44Z" fill="#89C5CC"/>
<path opacity="0.5" fill-rule="evenodd" clip-rule="evenodd" d="M73.1483 379.277C71.1408 379.903 68.5147 383.964 69.8959 386.45C72.1606 390.526 73.1594 384.267 74.1072 383.665C75.8318 382.569 77.2317 386.574 79.034 384.473C81.8779 381.158 74.9387 378.716 73.1483 379.277Z" fill="#69A1AC"/>
<path opacity="0.5" fill-rule="evenodd" clip-rule="evenodd" d="M96.1505 376.263C93.7698 376.289 88.7439 380.233 88.3879 383.145C88.1765 384.876 89.1569 386.538 90.7509 386.561C92.9215 386.592 93.6113 383.29 95.4928 382.599C97.5225 381.854 97.2212 383.57 98.9741 384.459C100.257 385.11 101.861 384.838 102.307 382.992C103.147 379.511 98.5967 376.209 96.1505 376.263Z" fill="#69A1AC"/>
<path opacity="0.5" fill-rule="evenodd" clip-rule="evenodd" d="M77.9274 392.938C74.1196 395.549 80.385 401.146 82.5571 401.846C85.8363 402.902 92.4359 400.931 93.213 396.243C93.5223 394.378 92.5251 392.688 90.7657 393.022C89.3172 393.297 88.3881 395.423 87.0463 396.185C85.2353 397.213 83.6251 397.143 82.0862 395.596C80.8325 394.335 80.1611 391.413 77.9274 392.938Z" fill="#69A1AC"/>
<path opacity="0.5" fill-rule="evenodd" clip-rule="evenodd" d="M80.6867 431.519C77.2847 432.368 73.8263 431.798 70.4078 432.596C66.9219 433.41 64.8387 434.951 61.6001 433.399C61.4477 433.324 61.2958 433.248 61.1438 433.173C58.6371 431.91 56.0099 431.536 53.3861 433.549C51.8334 434.741 47.1198 438.862 47.6879 441.377C48.9191 446.829 54.2229 438.28 55.5754 437.447C58.1544 435.858 59.9226 437.888 62.5778 438.46C65.7582 439.147 68.3173 437.18 71.3132 436.397C74.817 435.481 78.7589 435.162 82.3236 434.671C83.732 434.478 89.0664 435.781 89.548 433.73C90.3753 430.207 82.0239 431.186 80.6867 431.519Z" fill="#C1DEE2"/>
<path opacity="0.5" fill-rule="evenodd" clip-rule="evenodd" d="M105.232 442.499C105.454 442.696 105.276 442.538 105.232 442.499V442.499ZM114.76 431.305C117.672 430.96 126.991 428.525 128.904 432.047C130.15 434.34 128.173 442.807 126.286 443.902C124.778 444.776 121.266 443.809 119.611 443.741C116.533 443.614 113.448 443.557 110.373 443.333C109.341 443.258 106.023 443.479 105.214 442.411C104.259 441.15 104.302 434.427 104.077 432.759C106.755 433.774 111.96 431.638 114.76 431.305ZM120.979 427.853C117.249 428.042 113.52 428.37 109.817 428.955C107.754 429.282 105.663 430.149 103.757 430.56C103.142 430.693 102.145 430.325 101.392 430.751C99.1899 431.995 101.118 440.411 101.649 442.659C102.464 446.112 104.517 446.671 107.392 446.997C111.18 447.426 115.045 447.291 118.844 447.237C122.507 447.184 127.445 448.134 129.5 443.834C130.828 441.054 132.253 434.579 131.117 431.481C129.624 427.404 124.047 427.702 120.979 427.853Z" fill="#C1DEE2"/>
<path opacity="0.5" fill-rule="evenodd" clip-rule="evenodd" d="M162.75 444.812C162.55 445.111 162.55 445.111 162.75 444.812V444.812ZM163.567 443.659C163.505 443.768 163.219 444.122 163.567 443.659V443.659ZM154.672 443.342C156.316 442.98 157.961 442.622 159.607 442.27C158.048 444.824 156.406 443.768 153.744 443.546C154.053 443.478 154.362 443.41 154.672 443.342ZM146.827 442.438C147.244 442.275 147.66 442.112 148.077 441.949C148.065 442.32 148.133 442.668 148.282 442.991C147.568 442.901 146.855 442.804 146.143 442.702C146.371 442.614 146.599 442.526 146.827 442.438ZM143.192 439.297C143.168 438.627 144.029 439.087 144.523 439.042C143.572 440.022 143.128 440.107 143.192 439.297ZM156.192 431.699C156.318 431.512 156.483 431.521 156.69 431.727C156.465 431.815 155.598 432.246 156.192 431.699ZM164.623 430.539C164.646 430.539 165.113 431.278 164.623 430.539V430.539ZM164.387 430.296C164.509 430.406 164.509 430.406 164.387 430.296V430.296ZM163.335 430.153C165.058 430.493 164.927 432.86 163.335 430.153V430.153ZM143.082 429.991C142.732 430.331 142.851 430.002 143.082 429.991V429.991ZM149.674 424.951C146.748 425.151 141.376 424.95 138.931 426.774C135.742 429.156 137.42 437.355 137.706 440.949C138.128 446.261 140.264 447.774 144.539 448.332C149.642 448.997 154.884 449.121 160.013 448.964C164.632 448.822 167.263 446.962 168.109 441.272C168.368 439.53 169.026 436.837 169.005 435.169C168.991 434.012 168.498 433.485 168.312 432.501C167.251 426.9 165.477 426.236 160.571 425.991C156.961 425.812 153.217 424.734 149.674 424.951Z" fill="#89C5CC"/>
</g>
<g opacity="0.5">
<path opacity="0.5" fill-rule="evenodd" clip-rule="evenodd" d="M304.702 296.281C312.142 296.466 320.585 301.285 319.408 311.494C318.546 318.972 313.013 325.043 306.604 325.567C299.716 326.129 292.434 319.943 291.498 311.737C290.446 302.507 297.426 296.096 304.702 296.281ZM301.053 292.125C298.036 292.652 295.154 294.506 292.498 296.166C291.484 296.8 286.343 300.666 290.375 301.626C280.661 319.958 303.522 336.986 316.375 325.071C322.147 319.721 325.186 309.577 321.455 301.637C317.596 293.425 308.445 290.826 301.053 292.125Z" fill="#89C5CC"/>
<path opacity="0.5" fill-rule="evenodd" clip-rule="evenodd" d="M299.274 307.729C299.274 311.153 303.815 311.153 303.815 307.729C303.815 304.305 299.274 304.305 299.274 307.729Z" fill="#89C5CC"/>
<path opacity="0.5" fill-rule="evenodd" clip-rule="evenodd" d="M307.694 308.277C307.694 311.989 312.618 311.989 312.618 308.277C312.618 304.565 307.694 304.565 307.694 308.277Z" fill="#89C5CC"/>
<path opacity="0.5" fill-rule="evenodd" clip-rule="evenodd" d="M302.013 315.618C301.35 318.434 308.905 319.879 309.157 316.619C309.277 315.062 302.474 313.654 302.013 315.618Z" fill="#89C5CC"/>
<path opacity="0.5" fill-rule="evenodd" clip-rule="evenodd" d="M324.161 313.878C332.854 312.657 341.818 313.221 350.554 313.514C352.74 313.588 354.926 313.659 357.113 313.702C358.503 313.729 361.505 314.51 362.718 313.749C367.686 310.631 357.941 309.123 356.561 308.98C347.871 308.143 334.461 307.845 325.746 308.24C323.169 308.357 322.612 314.095 324.161 313.878Z" fill="#89C5CC"/>
<path opacity="0.5" fill-rule="evenodd" clip-rule="evenodd" d="M363.281 364.45C363.355 353.791 363.682 343.06 364.382 332.433C364.667 328.101 365.009 323.775 365.293 319.443C365.426 317.403 366.046 314.545 365.021 312.755C363.965 310.91 361.649 310.527 360.253 312.161C358.582 314.693 359.066 318.942 358.859 322.004C358.539 326.713 358.153 331.418 357.961 336.136C357.59 345.269 357.505 354.561 358.132 363.681C358.428 367.985 359.069 372.184 359.923 376.381C360.313 378.291 363.408 386.802 362.757 387.976C361.749 389.796 354.296 389.108 352.68 389.158C348.532 389.289 344.383 389.373 340.234 389.466C336.682 389.546 333.129 389.602 329.577 389.639C328.166 389.654 319.878 389.36 321.717 391.807C301.158 393.484 280.206 390.685 259.773 389.725C258.741 389.676 257.052 389.334 255.493 389.235C255.306 388.354 255.153 387.567 255.115 387.019C254.846 383.177 254.776 379.321 254.485 375.479C253.952 368.45 252.919 361.491 252.305 354.474C251.692 347.465 251.753 340.434 251.396 333.407C251.335 332.203 251.19 322.34 249.063 319.944C250.072 320.391 251.698 320.449 252.634 320.361C260.214 319.645 267.739 318.104 275.254 316.781C277.404 316.403 282.283 316.671 284.066 315.414C285.61 314.325 286.22 310.508 283.535 310.816C276.042 311.756 268.589 313.214 261.154 314.649C259.166 315.033 257.182 315.443 255.199 315.863C253.875 316.143 250.379 316.121 249.352 317.056C248.104 318.19 247.972 318.961 248.394 319.475C247.807 319.285 247.102 319.583 246.256 320.573C244.656 323.01 246.16 329.011 246.351 331.867C246.58 335.294 246.693 338.727 246.826 342.16C247.084 348.804 247.678 355.356 248.592 361.919C249.615 369.273 250.486 376.656 251.512 384.007C251.779 385.921 252.128 387.787 252.572 389.636C249.807 391.291 251.687 393.923 253.88 394.389C253.896 394.393 253.912 394.395 253.928 394.398C254.611 396.349 255.567 398.157 256.314 395.543C256.371 395.342 256.398 395.095 256.405 394.818C262.068 395.568 268.293 395.102 273.869 395.369C285.947 395.946 298.099 396.813 310.19 396.374C314.976 396.2 319.777 395.703 324.523 394.955C327.304 394.517 330.095 393.995 332.831 393.269C333.027 393.218 333.325 393.163 333.669 393.097C333.726 393.095 333.783 393.093 333.836 393.092C338.026 393.018 342.212 392.887 346.398 392.683C349.912 392.512 353.442 392.424 356.944 392.037C359.12 391.796 363.718 391.84 365.054 389.28C366.268 386.952 364.238 380.956 363.949 378.341C363.442 373.736 363.248 369.089 363.281 364.45Z" fill="#C1DEE2"/>
<path opacity="0.5" fill-rule="evenodd" clip-rule="evenodd" d="M320.821 333.672C317.473 334.008 314.377 335.848 310.999 335.871C308.163 335.889 305.371 334.898 302.519 335.044C299.175 335.215 297.334 337.746 294.404 338.593C292.072 339.267 290.602 337.177 288.551 336.253C285.96 335.086 284.047 335.689 281.826 337.454C280.195 338.751 276.39 341.662 276.42 344.286C276.507 352.234 284.431 341.255 286.028 341.122C288.151 340.945 290.522 343.776 292.78 343.938C295.766 344.151 297.68 341.899 300.429 341.078C303.21 340.248 306.215 341.265 309.002 341.581C312.182 341.941 314.965 341.111 318.042 340.223C321.023 339.362 323.564 339.408 326.593 340.131C328.638 340.619 333.732 343.455 334.626 339.808C335.844 334.841 323.161 333.439 320.821 333.672Z" fill="#89C5CC"/>
<path opacity="0.5" fill-rule="evenodd" clip-rule="evenodd" d="M321.84 348.83C314.98 349.609 308.079 350.293 301.188 350.511C298.203 350.606 286.729 349.11 287.747 353.548C288.619 357.353 304.233 354.957 307.413 354.667C310.924 354.348 314.429 353.902 317.923 353.384C319.161 353.201 322.151 353.391 323.025 352.176C323.857 351.016 323.447 348.642 321.84 348.83Z" fill="#89C5CC"/>
<path opacity="0.5" fill-rule="evenodd" clip-rule="evenodd" d="M274.518 369.041C274.362 369.119 274.362 369.119 274.518 369.041V369.041ZM275.965 369.019C277.675 368.955 277.308 367.9 279.014 368.45C279.801 368.704 279.882 368.327 280.492 369.207C281.682 370.924 280.561 374.663 279.388 376.046C275.044 381.169 269.831 369.246 275.965 369.019ZM275.965 363.993C264.073 364.46 269.048 385.957 279.399 381.568C283.673 379.756 286.36 371.592 283.846 367.004C282.623 364.772 281.063 364.375 279.014 364.22C278.539 364.185 277.94 364.993 277.643 364.957C276.938 364.869 277.003 363.947 275.965 363.993Z" fill="#89C5CC"/>
<path opacity="0.5" fill-rule="evenodd" clip-rule="evenodd" d="M304.403 369.778C304.191 369.701 308.158 371.051 307.724 370.523C308.651 371.65 307.405 374.315 306.357 374.781C303.82 375.908 302.396 371.291 304.403 369.778ZM306.164 363.949C302.44 364.567 299.566 366.381 299.058 371.226C298.588 375.699 301.17 380.228 305.244 380.315C314.122 380.505 314.393 362.606 306.164 363.949Z" fill="#89C5CC"/>
<path opacity="0.5" fill-rule="evenodd" clip-rule="evenodd" d="M346.695 369.974C347.215 377.916 340.177 370.646 346.695 369.974V369.974ZM343.675 361.477C343.059 362.708 343.584 364.015 344.513 364.73C336.212 366.783 338.092 381.401 346.539 379.242C350.835 378.143 351.625 372.857 350.985 368.493C350.68 366.418 346.26 356.304 343.675 361.477Z" fill="#89C5CC"/>
</g>
<path opacity="0.5" fill-rule="evenodd" clip-rule="evenodd" d="M363.315 369.104C360.84 369.619 354.99 372.817 355.041 376.252C355.12 381.614 360.092 375.757 361.198 374.97C367.139 370.739 374.835 376.221 381.021 377.388C383.857 377.923 389.406 378.911 391.911 376.687C396.367 372.731 386.063 373.721 384.75 373.562C377.618 372.7 370.522 367.598 363.315 369.104Z" fill="#C1DEE2"/>
<g opacity="0.5">
<path opacity="0.5" fill-rule="evenodd" clip-rule="evenodd" d="M480.202 331.406C480.199 336.892 479.962 342.492 480.826 347.912C481.088 349.553 481.294 352.697 482.774 353.548C484.26 354.403 485.7 353.442 486.07 351.66C486.5 349.586 485.556 346.482 485.46 344.305C485.329 341.331 485.32 338.353 485.319 335.375C485.318 333.224 485.923 329.765 483.753 328.658C482.14 327.835 480.202 329.365 480.202 331.406Z" fill="#C1DEE2"/>
<path opacity="0.5" fill-rule="evenodd" clip-rule="evenodd" d="M554.319 322.729C538.786 324.553 523.029 324.933 507.44 325.884C500.233 326.324 491.524 325.763 484.735 329.027C483.475 329.633 478.96 333.007 482.625 334.38C483.768 334.809 484.929 333.368 485.867 332.886C487.429 332.083 489.238 331.835 490.904 331.521C505.07 328.859 519.887 329.323 534.198 328.079C537.865 327.76 541.534 327.432 545.193 327.011C547.807 326.71 553.303 324.505 555.715 325.632C559.838 327.56 559.742 340.081 559.823 344.387C559.865 346.614 558.018 354.609 561.69 353.798C564.629 353.15 563.565 344.845 563.336 342.573C562.735 336.618 561.71 321.853 554.319 322.729Z" fill="#C1DEE2"/>
<path opacity="0.5" fill-rule="evenodd" clip-rule="evenodd" d="M560.048 353.51C546.555 354.935 532.752 353.537 519.204 354.097C512.103 354.392 505.009 354.86 497.906 355.134C494.835 355.253 491.76 355.258 488.687 355.284C487.217 355.295 480.528 356.338 484.666 359.748C486.498 361.258 492.337 360.042 494.439 360.012C497.597 359.969 500.753 359.815 503.909 359.671C511.218 359.336 518.523 358.873 525.836 358.641C532.831 358.42 539.83 358.372 546.825 358.151C550.306 358.04 553.834 357.915 557.283 357.32C558.062 357.186 560.59 357.08 561.131 356.064C561.642 355.103 561.283 353.37 560.048 353.51Z" fill="#89C5CC"/>
<path opacity="0.5" fill-rule="evenodd" clip-rule="evenodd" d="M493.736 341.656C493.664 341.857 493.664 341.857 493.736 341.656V341.656ZM499.579 339.578C499.792 339.684 499.792 339.684 499.579 339.578V339.578ZM499.306 339.52C502.455 343.276 497.612 347.759 494.663 344.093C491.532 340.203 497.279 339.533 499.306 339.52ZM495.966 333.838C485.121 336.097 488.961 353.011 499.09 350.566C503.537 349.494 506.081 344.251 504.55 339.215C503.952 337.248 502.649 335.088 500.833 334.468C499.928 334.159 499.127 334.646 498.265 334.532C497.443 334.424 496.987 333.623 495.966 333.838Z" fill="#C1DEE2"/>
<path opacity="0.5" fill-rule="evenodd" clip-rule="evenodd" d="M537.474 338.599C530.934 338.623 524.392 338.948 517.853 339.093C515.847 339.138 510.692 338.087 510.684 341.788C510.675 345.741 516.418 344.281 518.329 344.228C524.815 344.046 531.318 343.714 537.779 342.991C539.41 342.808 545.06 343.124 545.054 340.527C545.048 337.775 538.792 338.599 537.474 338.599Z" fill="#C1DEE2"/>
<path opacity="0.5" fill-rule="evenodd" clip-rule="evenodd" d="M553.093 364.404C536.918 364.912 520.767 365.089 504.605 366.058C498.56 366.42 492.523 366.689 486.469 366.689C485.303 366.689 482.955 366.161 481.858 367.02C478.879 369.351 482.271 371.351 484.212 371.477C497.489 372.339 510.958 370.193 524.228 369.709C531.996 369.426 539.767 369.342 547.53 368.879C549.648 368.753 551.767 368.607 553.881 368.415C555.097 368.304 558.313 368.607 559.296 367.774C563.588 364.14 554.54 364.358 553.093 364.404Z" fill="#89C5CC"/>
<path opacity="0.5" fill-rule="evenodd" clip-rule="evenodd" d="M478.879 373.659C478.727 378.566 478.711 383.388 479.26 388.268C479.476 390.189 479.575 392.368 481.498 392.856C483.245 393.299 484.131 391.752 484.493 390.038C485.377 385.852 484.599 379.826 484.589 375.478C484.584 373.327 484.582 370.921 482.312 370.435C480.579 370.063 478.945 371.528 478.879 373.659Z" fill="#89C5CC"/>
<path opacity="0.5" fill-rule="evenodd" clip-rule="evenodd" d="M570.239 385.489C544.056 387.104 517.907 388.513 491.704 389.81C489.661 389.911 473.786 389.708 479.336 396.186C481.05 398.187 485.467 396.832 487.683 396.705C491.015 396.513 494.348 396.367 497.679 396.168C510.887 395.382 524.129 395.17 537.328 394.287C544.591 393.801 551.837 393.041 559.062 392.051C562.499 391.58 566.765 391.629 569.984 390.053C571.64 389.242 573.427 385.292 570.239 385.489Z" fill="#89C5CC"/>
<path opacity="0.5" fill-rule="evenodd" clip-rule="evenodd" d="M555.184 360.596C553.193 362.916 554.217 367.495 554.367 370.363C554.573 374.31 554.824 378.26 555.245 382.185C555.519 384.735 555.374 388.704 556.537 390.906C557.898 393.485 560.896 393.2 562.127 390.708C563.215 388.504 562.665 383.867 562.636 381.425C562.597 378.047 562.417 374.665 562.246 371.294C562.103 368.477 562.648 363.962 561.324 361.551C559.979 359.101 557.05 358.424 555.184 360.596Z" fill="#89C5CC"/>
<path opacity="0.5" fill-rule="evenodd" clip-rule="evenodd" d="M495.337 378.605C495.103 378.815 495.103 378.815 495.337 378.605V378.605ZM499.987 377.923C504.327 378.944 497.31 384.872 495.092 380.803C494.746 380.168 494.566 379.386 495.122 378.834C495.629 378.329 495.948 379.222 496.428 378.982C497.253 378.569 499.106 377.884 499.987 377.923ZM499.389 373.055C496.426 373.33 492.353 373.544 490.886 377.019C488.916 381.687 492.285 386.258 496.183 386.968C499.934 387.652 505.534 385.221 505.834 380.102C506.076 375.974 502.722 372.739 499.389 373.055Z" fill="#89C5CC"/>
<path opacity="0.5" fill-rule="evenodd" clip-rule="evenodd" d="M524.123 375.524C521.056 375.581 515.028 374.52 512.356 376.27C509.712 378.001 510.891 381.083 513.303 381.82C514.897 382.307 517.503 381.521 519.163 381.442C521.346 381.338 523.531 381.316 525.716 381.28C529.391 381.222 533.064 381.271 536.738 381.271C540.492 381.271 544.309 381.391 548.056 381.068C552.796 380.66 552.669 376.506 548.033 375.987C540.157 375.105 532.024 375.378 524.123 375.524Z" fill="#89C5CC"/>
<path opacity="0.5" fill-rule="evenodd" clip-rule="evenodd" d="M516.289 422.045C516.289 424.018 517.785 422.045 517.775 422.045C517.785 422.045 516.289 420.071 516.289 422.045Z" fill="#89C5CC"/>
<path opacity="0.5" fill-rule="evenodd" clip-rule="evenodd" d="M482.44 406.158C482.536 411.894 482.6 417.636 482.809 423.368C482.875 425.181 482.432 428.72 484.309 429.644C486.399 430.673 487.049 428.109 487.289 426.372C488.052 420.868 487.304 414.584 487.231 409.015C487.206 407.145 487.552 404.542 485.737 403.61C484.257 402.849 482.41 404.261 482.44 406.158Z" fill="#89C5CC"/>
<path opacity="0.5" fill-rule="evenodd" clip-rule="evenodd" d="M563.058 406.248C563.181 406.59 563.181 406.59 563.058 406.248V406.248ZM563.232 406.19C563.333 406.239 563.739 406.438 563.232 406.19V406.19ZM523.63 401.553C516.104 401.691 508.573 401.796 501.052 402.173C497.842 402.334 494.596 402.464 491.397 402.818C489.131 403.069 483.503 403.173 482.033 405.34C479.001 409.812 485.432 408.592 486.817 408.229C489.337 407.568 491.91 407.356 494.485 407.197C500.073 406.852 505.663 406.668 511.258 406.536C526.429 406.179 541.612 406.233 556.786 406.153C558.255 406.145 560.91 405.454 562.267 406.149C563.626 406.846 563.55 408.56 563.691 410.55C563.879 413.197 562.387 418.241 563.524 420.468C565.287 423.922 567.852 420.989 568.244 418.471C568.785 414.992 567.927 410.814 567.087 407.488C565.901 402.796 564.255 402.609 560.376 402.242C555.844 401.814 551.329 401.554 546.782 401.505C539.067 401.422 531.345 401.413 523.63 401.553Z" fill="#89C5CC"/>
<path opacity="0.5" fill-rule="evenodd" clip-rule="evenodd" d="M553.396 425.266C537.072 427.484 520.285 426.177 503.874 426.256C499.884 426.275 495.89 426.312 491.903 426.539C489.797 426.658 484.806 425.979 483.363 427.879C480.322 431.887 485.8 432.469 487.8 432.303C491.843 431.967 495.896 431.814 499.95 431.777C514.228 431.648 528.586 432.427 542.853 431.603C548.83 431.258 554.673 430.062 560.54 428.725C561.839 428.428 570.736 426.449 565.663 424.077C562.665 422.675 556.545 424.836 553.396 425.266Z" fill="#89C5CC"/>
<path opacity="0.5" fill-rule="evenodd" clip-rule="evenodd" d="M505.736 417.931C505.623 418.102 505.623 418.102 505.736 417.931V417.931ZM505.627 417.901C505.588 418.024 505.468 418.327 505.627 417.901V417.901ZM504.597 416.347C504.621 416.383 504.718 416.529 504.597 416.347V416.347ZM504.558 416.336C504.951 416.885 505.215 417.497 505.351 418.173C501.969 419.245 500.666 416.043 504.558 416.336ZM504.344 416.186C504.345 416.187 504.82 416.421 504.344 416.186V416.186ZM498.788 411.416C496.599 414.606 494.792 418.323 497.521 421.966C499.961 425.223 504.87 425.644 507.967 423.469C511.157 421.228 510.881 416.511 508.656 413.432C507.224 411.449 506.062 411.504 503.983 411.18C502.568 410.96 499.989 409.672 498.788 411.416Z" fill="#89C5CC"/>
<path opacity="0.5" fill-rule="evenodd" clip-rule="evenodd" d="M521.414 417.319C521.414 421.567 537.087 419.738 539.875 419.734C542.21 419.73 556.332 421.237 555.319 416.867C554.486 413.275 540.575 415.06 537.613 415.055C535.052 415.051 521.414 412.994 521.414 417.319Z" fill="#89C5CC"/>
</g>
<g opacity="0.5">
<path opacity="0.5" fill-rule="evenodd" clip-rule="evenodd" d="M316.811 457.113C324.66 458.447 332.825 462.766 332.756 473.457C332.699 482.445 326.256 492.012 317.984 491.475C310.539 490.992 303.529 481.465 302.596 473.301C302.113 469.071 303.017 464.517 305.143 461.037C307.929 456.478 312.35 456.485 316.811 457.113ZM313.104 451.302C307.427 451.339 303.274 453.742 299.761 458.814C298.5 460.632 297.035 462.59 296.076 464.651C295.18 466.575 295.337 471.468 298.411 469.174C297.654 478.648 302.386 487.844 309.188 492.698C316.582 497.975 324.94 496.947 331.093 489.55C336.726 482.779 338.709 471.342 334.588 462.969C330.469 454.599 320.926 451.213 313.104 451.302Z" fill="#89C5CC"/>
<path opacity="0.5" fill-rule="evenodd" clip-rule="evenodd" d="M330.127 448.763C326.492 451.88 323.174 455.985 320.417 460.148C317.723 464.217 315.942 469.298 312.706 472.846C311.071 470.763 309.157 465.137 305.896 467.369C303.191 469.221 304.933 472.406 306.25 474.498C309.653 479.898 313.432 482.071 317.795 476.736C321.759 471.89 324.009 465.426 327.715 460.302C329.34 458.054 331.851 455.822 333.146 453.34C334.319 451.09 332.868 446.406 330.127 448.763Z" fill="#89C5CC"/>
</g>
<g opacity="0.5">
<path opacity="0.5" fill-rule="evenodd" clip-rule="evenodd" d="M430.033 138.9C430.155 138.878 430.275 138.862 430.389 138.854C433.42 138.629 436.49 138.722 439.527 138.64C445.744 138.471 452.207 138.869 458.388 138.017C459.644 137.826 460.084 139.712 459.52 140.69C458.887 141.787 456.863 141.731 455.926 141.894C453.182 142.369 450.402 142.535 447.634 142.678C444.726 142.829 441.816 142.942 438.907 143.037C436.387 143.118 430.795 144.352 428.463 143.117C426.647 142.155 426.689 141.087 427.431 140.26C426.981 139.104 427.055 137.21 426.959 136.302C426.555 132.494 426.312 128.734 426.307 124.894C426.295 117.37 426.308 109.557 428.086 102.275C427.374 101.91 426.945 101.372 426.946 100.597C426.956 95.9909 441.394 97.0909 444.322 96.9999C447.92 96.8899 451.519 96.8749 455.118 96.8979C457.497 96.9129 460.713 96.3119 463.082 96.9559C467.693 98.2089 467.401 107.46 467.496 111.933C467.665 119.956 467.567 128.391 467.01 136.396C466.817 139.16 465.099 142.663 463.139 138.853C462.046 136.729 462.533 131.766 462.532 129.419C462.527 121.076 463.644 112.48 462.575 104.179C462.225 101.458 462.302 101.274 459.936 101.331C458.06 101.377 456.183 101.45 454.306 101.496C450.484 101.59 446.661 101.651 442.841 101.815C441.39 101.877 436.177 102.943 432.111 102.939C432.113 102.977 432.116 103.015 432.117 103.054C432.173 106.271 430.825 110.175 430.642 113.559C430.201 121.7 430.727 130.03 430.076 138.129C430.056 138.375 430.045 138.636 430.033 138.9Z" fill="#89C5CC"/>
<path opacity="0.5" fill-rule="evenodd" clip-rule="evenodd" d="M484.772 141.253C484.299 140.689 483.873 139.859 483.6 138.825C482.619 135.111 482.526 131.104 482.454 127.253C482.298 119.022 482.376 110.777 482.333 102.544C481.695 101.541 482.074 100.394 482.87 99.5939C485.021 97.4339 491.219 97.9819 493.949 97.8129C497.878 97.5689 501.81 97.5139 505.745 97.4969C509.91 97.4719 514.082 97.5599 518.246 97.7089C519.79 97.7649 530.532 98.0809 525.731 101.128C525.456 101.303 525.146 101.449 524.809 101.57C525.008 102.954 525.033 104.384 525 105.073C524.796 109.454 524.709 113.844 524.542 118.228C524.357 123.122 524.18 128.015 524.036 132.91C523.96 135.498 524.717 141.516 522.967 143.385C521.787 144.644 520.981 144.392 520.438 143.536C516.249 144.96 506.583 144.042 504.823 144.043C501.668 144.045 484.537 146.418 484.509 142.147C484.507 141.816 484.599 141.519 484.772 141.253ZM487.555 139.743C492.334 138.549 501.245 139.346 503.12 139.338C506.611 139.322 510.105 139.379 513.594 139.542C514.681 139.593 517.341 139.348 519.442 139.621C519.424 139.398 519.411 139.195 519.403 139.019C519.213 134.612 519.42 130.159 519.542 125.752C519.664 121.311 519.851 116.872 519.997 112.432C520.073 110.147 519.58 105.379 520.114 102.092C517.577 102.036 514.917 101.677 513.206 101.677C509.19 101.676 505.177 101.623 501.161 101.716C496.824 101.817 492.44 101.876 488.133 102.546C487.897 102.582 487.613 102.653 487.299 102.739C487.955 105.948 487.159 111.109 487.156 114.082C487.148 122.413 487.411 130.699 487.57 138.986C487.575 139.257 487.57 139.509 487.555 139.743Z" fill="#89C5CC"/>
<path opacity="0.5" fill-rule="evenodd" clip-rule="evenodd" d="M444.449 142.862C441.867 144.627 443.259 151.688 444.154 154.13C445.625 158.146 448.609 161.288 451.829 163.373C458.337 167.585 467.718 166.466 472.64 173.77C472.691 173.846 474.392 175.817 474.78 173.264C475.098 171.17 471.921 167.971 470.691 166.921C467.191 163.935 462.702 162.972 458.654 161.481C454.336 159.89 449.598 156.958 447.788 151.749C447.147 149.905 448.369 140.169 444.449 142.862Z" fill="#C1DEE2"/>
<path opacity="0.5" fill-rule="evenodd" clip-rule="evenodd" d="M503.481 146.257C501.115 147.02 502.68 150.83 502.676 152.738C502.671 155.118 502.021 157.609 500.768 159.508C497.589 164.325 491.364 165.047 486.697 166.428C483.309 167.432 475.201 169.583 474.884 174.946C474.53 180.935 481.687 173.647 482.292 173.348C488.982 170.476 497.637 169.922 502.8 163.601C504.932 160.992 506.192 157.509 506.392 153.915C506.505 151.892 506.524 145.284 503.481 146.257Z" fill="#C1DEE2"/>
<path opacity="0.5" fill-rule="evenodd" clip-rule="evenodd" d="M471.786 179.072C481.635 176.036 490.809 184.111 491.97 195.728C493.196 207.987 485.3 217.857 474.886 218.398C465.726 218.874 454.643 211.199 454.585 199.376C454.53 188.296 463.592 181.593 471.786 179.072ZM476.526 187.336C474.841 188.485 474.533 185.504 473.34 185.11C472.143 184.716 470.219 186.19 469.221 187.049C467.528 188.508 462.837 197.001 460.564 192.389C453.665 206.33 470.865 216.763 480.646 211.487C491.388 205.693 489.297 184.51 476.586 184.399C477.119 185.247 477.599 186.599 476.526 187.336Z" fill="#89C5CC"/>
<path opacity="0.5" fill-rule="evenodd" clip-rule="evenodd" d="M467.571 195.666C467.571 198.21 471.003 198.21 471.003 195.666C471.003 193.152 467.571 193.044 467.571 195.666Z" fill="#89C5CC"/>
<path opacity="0.5" fill-rule="evenodd" clip-rule="evenodd" d="M473.61 195.189C473.61 198.304 477.816 198.304 477.816 195.189C477.816 192.109 473.61 191.978 473.61 195.189Z" fill="#89C5CC"/>
<path opacity="0.5" fill-rule="evenodd" clip-rule="evenodd" d="M469.289 202.449C465.85 204.816 475.687 209.52 476.075 204.713C476.243 202.639 474.526 203.198 473.382 203.046C472.287 202.9 470.328 201.741 469.289 202.449Z" fill="#89C5CC"/>
<path opacity="0.5" fill-rule="evenodd" clip-rule="evenodd" d="M467.796 219.246C467.946 225.293 467.874 231.337 468.854 237.3C469.04 238.432 469.17 242.54 469.935 243.381C471.816 245.451 471.847 241.484 471.92 239.964C472.181 234.519 471.693 228.905 471.585 223.449C471.562 222.275 471.828 219.842 471.354 218.706C470.603 216.901 467.723 216.365 467.796 219.246Z" fill="#C1DEE2"/>
<path opacity="0.5" fill-rule="evenodd" clip-rule="evenodd" d="M464.117 214.342C456.576 224.247 446.192 223.517 435.73 224.384C430.203 224.843 424.614 225.784 420.166 229.967C418.098 231.914 416.314 234.351 415.115 237.129C414.591 238.344 412.106 245.352 415.839 243.689C417.162 243.1 418.465 238.465 419.321 237.095C420.952 234.484 423.038 232.329 425.541 230.927C430.369 228.225 436.133 228.271 441.368 227.928C446.84 227.57 452.713 227.235 457.743 224.45C460.109 223.141 462.329 221.507 464.233 219.402C464.914 218.649 466.373 217.371 466.482 216.22C466.606 214.905 465.526 212.497 464.117 214.342Z" fill="#C1DEE2"/>
<path opacity="0.5" fill-rule="evenodd" clip-rule="evenodd" d="M426.049 244.741C418.965 245.018 411.89 245.354 404.817 245.878C403.367 245.985 398.534 245.642 399.765 249.118C400.751 251.904 406.646 250.061 408.596 249.926C415.967 249.414 423.368 249.236 430.723 248.46C432.376 248.286 439.844 248.356 436.761 244.929C435.293 243.298 428.076 244.66 426.049 244.741Z" fill="#89C5CC"/>
<path opacity="0.5" fill-rule="evenodd" clip-rule="evenodd" d="M395.267 248.739C393.034 252.171 394.06 260.511 394.229 264.636C394.392 268.634 393.729 275.943 398.188 276.563C396.772 276.345 399.263 276.663 399.668 276.689C400.574 276.746 401.483 276.764 402.39 276.776C404.484 276.802 406.58 276.77 408.674 276.721C413.417 276.61 418.173 276.448 422.911 276.141C424.902 276.012 435.706 276.12 436.133 273.699C436.68 270.606 426.322 272.356 424.468 272.455C419.952 272.697 415.429 272.748 410.909 272.817C408.669 272.852 406.426 272.878 404.186 272.826C403.261 272.805 399.598 273.25 399.036 272.528C398.556 271.913 398.93 266.261 398.92 265.396C398.887 262.578 398.89 259.753 398.976 256.936C399.033 255.039 399.91 251.431 399.196 249.649C398.501 247.917 396.477 247.326 395.267 248.739Z" fill="#89C5CC"/>
<path opacity="0.5" fill-rule="evenodd" clip-rule="evenodd" d="M431.742 248.899C431.871 255.177 431.911 261.582 433.178 267.721C433.6 269.764 434.191 273.978 435.945 275.035C437.786 276.146 439.376 274.561 439.496 272.426C439.647 269.742 438.419 266.219 438.168 263.466C437.873 260.253 437.702 257.037 437.602 253.809C437.525 251.381 438.156 247.74 436.178 246.175C434.401 244.768 431.684 246.184 431.742 248.899Z" fill="#89C5CC"/>
<path opacity="0.5" fill-rule="evenodd" clip-rule="evenodd" d="M445.838 247.367C443.635 249.935 444.62 258.065 444.896 261.365C445.097 263.781 447.358 275.67 450.745 269.47C452.243 266.728 450.34 259.477 450.353 256.279C450.362 254.243 450.978 251.668 450.68 249.711C450.287 247.125 447.837 245.031 445.838 247.367Z" fill="#89C5CC"/>
<path opacity="0.5" fill-rule="evenodd" clip-rule="evenodd" d="M497.662 268.586C498.147 269.201 498.362 270.076 498.047 270.933C497.29 272.99 494.503 272.546 492.989 272.694C487.937 273.187 482.861 273.515 477.791 273.567C472.893 273.618 467.992 273.471 463.094 273.527C459.013 273.574 454.762 274.542 450.719 274.348C449.031 274.266 447.229 273.62 447.657 271.067C448.036 268.802 449.984 268.784 451.571 268.595C456.354 268.025 461.139 267.824 465.947 267.844C476.045 267.885 486.136 267.824 496.235 267.762C496.65 267.802 497.041 267.988 497.363 268.271C496.835 267.52 497.088 266.409 496.99 265.325C496.724 262.401 496.553 259.528 496.079 256.605C495.701 254.267 495.415 250.296 493.564 248.825C491.543 247.219 487.056 247.75 484.643 247.677C478.152 247.481 471.624 248.021 465.163 248.708C462.216 249.022 459.233 249.26 456.32 249.879C454.698 250.225 449.938 253.011 448.642 251.297C445.522 247.167 459.232 245.472 461.094 245.247C467.711 244.448 474.336 243.849 480.99 243.775C485.483 243.734 493.173 243.286 496.476 247.599C498.46 250.19 499.157 254.457 499.931 257.689C500.525 260.172 502.138 264.648 500.992 267.212C500.474 268.372 499.639 269.361 498.372 268.95C498.076 268.854 497.844 268.731 497.662 268.586Z" fill="#89C5CC"/>
<path opacity="0.5" fill-rule="evenodd" clip-rule="evenodd" d="M531.494 235.846C531.782 236.279 531.782 236.279 531.494 235.846V235.846ZM486.714 210.266C482.695 213.03 490.134 221.141 492.028 222.396C496.293 225.218 502.152 225.644 506.913 226.438C512.939 227.443 519.497 227.813 525.287 230.124C527.755 231.109 529.323 232.645 530.939 235.006C531.757 236.202 533.728 241.359 535.523 240.138C539.138 237.68 529.399 227.363 527.253 226.254C522.374 223.732 516.608 223.026 511.392 222.047C506.542 221.136 501.587 220.459 496.857 218.854C494.256 217.971 492.407 216.547 490.908 213.822C489.974 212.123 489.207 208.559 486.714 210.266Z" fill="#C1DEE2"/>
<path opacity="0.5" fill-rule="evenodd" clip-rule="evenodd" d="M508.275 269.984C507.073 267.288 506.52 262.108 506.413 261.084C505.95 256.677 505.916 252.321 505.979 247.886C506.016 245.451 508.398 244.29 509.941 245.656C512.005 244.645 515.497 244.493 517.373 244.271C520.457 243.907 523.567 243.771 526.659 243.555C533.879 243.05 541.091 242.139 548.324 241.951C550.488 241.898 553.387 241.67 555.118 243.539C557.089 245.668 557.481 250.948 558.072 253.794C558.713 256.883 559.479 260.027 559.747 263.197C559.81 263.94 559.98 265.215 559.904 266.362C560.805 266.506 561.343 267.528 561.252 268.645C561.083 270.718 558.629 271 557.193 271.328C552.419 272.419 547.315 272.171 542.474 272.331C532.347 272.665 521.518 274.579 511.429 273.44C509.702 273.244 507.847 272.531 508.275 269.984ZM511.92 267.545C512.321 267.541 512.717 267.55 513.087 267.543C518.18 267.438 523.27 267.258 528.36 267.029C533.551 266.796 538.742 266.535 543.937 266.466C548.066 266.411 552.318 266.828 556.477 266.64C555.583 263.901 555.718 259.589 555.242 256.753C554.768 253.937 554.589 250.597 553.621 247.952C552.532 244.977 551.585 245.665 548.749 245.89C545.832 246.122 542.92 246.448 540.006 246.728C533.602 247.344 527.193 247.734 520.784 248.257C517.46 248.527 514.28 249.638 511.029 250.073C510.98 251.431 510.816 252.801 510.835 253.792C510.889 256.715 511.135 259.617 511.352 262.527C511.44 263.711 511.858 265.754 511.92 267.545Z" fill="#89C5CC"/>
</g>
<path fill-rule="evenodd" clip-rule="evenodd" d="M316.176 220.358C319.493 215.807 321.737 210.23 321.362 203.981C320.281 185.975 298.84 189.936 294.669 199.024C290.499 208.112 290.994 231.164 296.385 232.788C298.534 233.436 303.114 231.849 307.775 228.565L304.849 252.759H322.123L316.176 220.358Z" fill="#B28B67"/>
<path fill-rule="evenodd" clip-rule="evenodd" d="M310.8 210.579C311.365 210.125 312.04 209.849 312.765 209.849C314.753 209.849 316.364 211.921 316.364 214.056C316.364 216.277 315.467 217.995 314.185 218.723C314.87 220.287 315.558 221.422 316.364 221.628C319.474 221.261 323.561 212.222 323.561 204.801C323.561 196.678 318.032 189.656 307.727 189.656C298.465 189.656 294.953 194.121 294.772 198.07C298.741 199.345 305.676 199.836 315.644 199.753V200.594L307.007 201.435L305.568 206.484C307.858 206.284 309.494 208.12 310.8 210.579Z" fill="#191847"/>
<path d="M331.696 504.558C296.879 504.558 268.655 473.063 268.655 434.214C268.655 395.364 296.879 363.87 331.696 363.87C366.512 363.87 394.736 395.364 394.736 434.214C394.736 473.063 366.512 504.558 331.696 504.558Z" fill="#C5CFD6"/>
<path fill-rule="evenodd" clip-rule="evenodd" d="M212.565 493.704C223.055 466.564 230.641 442.931 233.686 430.462C238.9 409.112 242.867 390.326 243.869 383.31C246.26 366.58 225.48 365.606 222.733 373.92C218.575 386.505 211.318 427.852 202.597 490.304L212.565 493.704ZM334.243 408.529C324.619 404.082 290.914 390.165 274.658 386.228C269.987 385.096 265.459 384.045 261.203 383.095C248.55 380.272 241.995 406.954 254.181 409.004C284.528 414.11 327.551 419.382 331.232 419.974C336.393 420.803 340.292 411.324 334.243 408.529Z" fill="#B28B67"/>
<path fill-rule="evenodd" clip-rule="evenodd" d="M253.437 375.753L305.497 344.773V338.029H299.305C248.94 353.031 223.203 362.646 222.095 366.873C222.084 366.918 222.073 366.964 222.063 367.009C222.037 367.048 222.012 367.087 221.988 367.127C212.007 383.173 206.029 461.516 204.067 467.382L223.193 470.717C230.51 439.002 253.918 416.908 253.296 378.923C253.464 377.809 253.506 376.752 253.437 375.753Z" fill="#1F28CF"/>
<path fill-rule="evenodd" clip-rule="evenodd" d="M301.171 394.151C305.935 393.037 310.321 392.042 314.075 391.272C338.32 386.301 345.39 371.13 341.209 338.029H296.539C289.241 340.479 251.319 359.07 231.643 368.958C218.621 375.502 222.726 399.094 230.101 405.233C230.141 405.61 230.273 405.866 230.51 405.98C270.18 425.201 301.563 415.116 312.046 418.338L316.896 400.456L301.171 394.151Z" fill="#2B44FF"/>
<path fill-rule="evenodd" clip-rule="evenodd" d="M330.613 405.969C333.275 406.434 335.17 407.016 336.296 407.714C337.667 408.563 339.562 410.056 341.981 412.191C341.248 413.952 334.663 429.78 322.225 459.673C318.029 458.625 316.337 456.68 317.149 453.84C317.962 450.999 318.615 448.626 319.11 446.721L319.41 419.147C319.416 418.617 319.795 418.226 320.257 418.274C320.265 418.275 320.273 418.276 320.281 418.277L323.978 418.784C326.039 416.965 327.389 415.287 328.029 413.748C328.549 412.498 328.812 410.489 328.817 407.721C328.819 406.659 329.57 405.867 330.494 405.953C330.534 405.957 330.574 405.962 330.613 405.969Z" fill="#E4E4E4"/>
<path fill-rule="evenodd" clip-rule="evenodd" d="M217.339 488.672C218.255 491.53 218.713 493.669 218.713 495.088C218.713 496.814 218.467 499.332 217.975 502.643C216.263 502.643 200.87 502.643 171.798 502.643C170.598 498.006 171.291 495.502 173.876 495.133C176.462 494.763 178.609 494.429 180.319 494.131L201.782 482.946C202.195 482.731 202.679 482.948 202.863 483.431C202.866 483.439 202.869 483.447 202.872 483.455L204.252 487.368C206.645 488.673 208.59 489.326 210.087 489.326C211.302 489.326 212.981 488.752 215.123 487.604C215.946 487.163 216.917 487.585 217.294 488.546C217.311 488.587 217.325 488.63 217.339 488.672Z" fill="#E4E4E4"/>
<path fill-rule="evenodd" clip-rule="evenodd" d="M254.736 311.822L225.071 296.592C219.874 290.539 214.856 285.938 210.016 282.789C208.569 282.251 206.097 282.088 208.734 286.592C211.372 291.096 213.974 295.972 212.92 297.55C211.866 299.129 208.812 297.386 207.606 299.953C206.802 301.665 211.949 303.712 223.046 306.094L245.264 326.007L254.736 311.822ZM374.671 316.016L357.894 319.908C374.766 356.664 383.815 376.145 385.039 378.35C387.794 383.312 385.223 392.406 384.274 397.196C390.23 398.816 387.881 388.337 395.418 390.525C402.298 392.522 408.131 397.647 414.546 390.735C415.335 389.885 415.912 387.229 413.223 385.866C406.524 382.472 396.626 376.116 395.021 373.649C392.833 370.284 386.049 351.073 374.671 316.016Z" fill="#B28B67"/>
<path fill-rule="evenodd" clip-rule="evenodd" d="M312.296 242.64L305.217 241.221C289.797 258.707 283.504 300.715 273.228 306.276C263.512 311.533 249.739 306.446 233.368 299.577L228.355 312.671C243.229 331.483 274.918 347.376 287.763 338.303C308.3 323.797 313.041 271.986 312.296 242.64Z" fill="#DB2721"/>
<path fill-rule="evenodd" clip-rule="evenodd" d="M343.158 346.642C314.771 346.642 293.891 346.642 280.517 346.642C277.654 346.642 278.194 341.811 278.607 339.373C283.383 311.235 302.024 280.903 302.024 240.849L320.093 237.537C335.038 265.635 340.206 300.229 343.158 346.642Z" fill="#DDE3E9"/>
<path fill-rule="evenodd" clip-rule="evenodd" d="M349.405 318.154C362.175 345.08 372.909 364.466 381.606 376.311L394.737 373.305C386.279 311.988 361.786 266.732 321.259 237.537H321.052H314.104C297.884 302.174 293.412 345.242 300.689 366.741H357.076C356.184 351.01 353.323 334.374 349.405 318.154Z" fill="#FF4133"/>
</svg>
