<svg width="24" height="24" viewBox="0 0 24 24" fill="none" xmlns="http://www.w3.org/2000/svg">
<rect width="24" height="24" rx="4" fill="#4479A1"/>
<path d="M16.0379 5.51863C15.9325 5.51863 15.861 5.53151 15.7868 5.549V5.56097H15.7996C15.8491 5.65669 15.9334 5.72664 15.9957 5.81224C16.0452 5.91073 16.0874 6.00921 16.1369 6.10678L16.1498 6.09297C16.2359 6.03222 16.2781 5.93466 16.2781 5.78647C16.2414 5.74321 16.2359 5.69995 16.2048 5.65761C16.1681 5.59594 16.0892 5.56557 16.0397 5.51679L16.0379 5.51863ZM6.28917 17.6626H5.43942C5.41192 16.2249 5.32667 14.8738 5.19192 13.6036H5.18458L3.89208 17.6626H3.24583L1.9625 13.6036H1.95333C1.85892 14.8213 1.79933 16.1743 1.77458 17.6626H1C1.05042 15.8531 1.176 14.1558 1.37583 12.5727H2.43L3.65375 16.3133H3.66108L4.89583 12.5727H5.89958C6.12142 14.4274 6.25158 16.1255 6.29192 17.6626H6.28917ZM9.97142 13.9073C9.62492 15.7896 9.16842 17.1592 8.60375 18.0124C8.16192 18.6714 7.67792 19 7.15267 19C7.01242 19 6.841 18.9577 6.63383 18.873V18.4183C6.73467 18.4339 6.85383 18.4422 6.98767 18.4422C7.23333 18.4422 7.43042 18.3732 7.58075 18.2379C7.76133 18.0722 7.85117 17.8863 7.85117 17.681C7.85117 17.5384 7.78058 17.2484 7.64033 16.8122L6.71083 13.9073H7.545L8.21142 16.0795C8.36175 16.5729 8.425 16.9171 8.39933 17.1131C8.766 16.1338 9.02083 15.0634 9.16475 13.9073H9.97142V13.9073ZM21.2693 17.6626H18.8585V12.5727H19.6698V17.0367H21.2693V17.6626ZM18.226 17.7869L17.2947 17.3267C17.3772 17.2567 17.4569 17.1813 17.5284 17.0966C17.9253 16.6308 18.1224 15.9387 18.1224 15.0229C18.1224 13.3385 17.4643 12.4954 16.147 12.4954C15.5017 12.4954 14.9975 12.7089 14.6345 13.1369C14.2403 13.6045 14.0423 14.293 14.0423 15.2033C14.0423 16.0979 14.2165 16.7551 14.5685 17.173C14.8893 17.5503 15.3724 17.739 16.0196 17.739C16.2616 17.739 16.4834 17.7087 16.6842 17.6488L17.8987 18.3594L18.2288 17.7869H18.226ZM15.2083 16.6437C15.0021 16.3124 14.8994 15.7785 14.8994 15.0459C14.8994 13.7637 15.2881 13.1222 16.0636 13.1222C16.4697 13.1222 16.7694 13.2759 16.9592 13.5824C17.1645 13.9156 17.2672 14.4439 17.2672 15.1683C17.2672 16.4606 16.8785 17.1085 16.103 17.1085C15.6951 17.1085 15.3972 16.9548 15.2065 16.6483L15.2083 16.6437ZM13.6885 16.2525C13.6885 16.6851 13.5308 17.0404 13.2155 17.3166C12.9002 17.5927 12.4794 17.7307 11.9468 17.7307C11.4491 17.7307 10.9715 17.5724 10.5049 17.2567L10.7222 16.8186C11.1237 17.0211 11.4857 17.1205 11.813 17.1205C12.1173 17.1205 12.3566 17.0533 12.5308 16.918C12.7031 16.7827 12.8057 16.5922 12.8057 16.352C12.8057 16.0482 12.5949 15.7905 12.2118 15.5742C11.8561 15.3782 11.1457 14.9695 11.1457 14.9695C10.7588 14.6869 10.5663 14.3841 10.5663 13.8862C10.5663 13.472 10.7103 13.1406 10.9972 12.8875C11.2859 12.6316 11.6572 12.5055 12.1155 12.5055C12.5848 12.5055 13.0138 12.6307 13.3988 12.8829L13.2036 13.321C12.8736 13.1811 12.5482 13.1093 12.2282 13.1093C11.9688 13.1093 11.7681 13.1719 11.6288 13.2989C11.4885 13.4241 11.4014 13.5843 11.4014 13.7812C11.4014 14.0831 11.6159 14.3427 12.0119 14.5636C12.3722 14.7615 13.1 15.1803 13.1 15.1803C13.4969 15.461 13.694 15.7601 13.694 16.2553L13.6885 16.2525ZM22.2887 10.8663C21.7983 10.8534 21.4178 10.9031 21.0998 11.0393C21.0081 11.0761 20.8614 11.0761 20.8486 11.193C20.899 11.2418 20.9063 11.3219 20.9494 11.39C21.0228 11.5133 21.1492 11.6781 21.2666 11.7646C21.3949 11.8658 21.5232 11.9634 21.658 12.0499C21.8963 12.1972 22.1668 12.2846 22.4005 12.4328C22.5334 12.5193 22.6691 12.6289 22.8038 12.7209C22.8707 12.7669 22.9138 12.8498 23 12.8792V12.8608C22.9578 12.8056 22.945 12.7255 22.9038 12.6638C22.8423 12.6022 22.7809 12.5469 22.7204 12.4862C22.5426 12.2469 22.3217 12.038 22.0833 11.8649C21.8872 11.7305 21.4582 11.5428 21.3775 11.3173L21.3656 11.3044C21.4994 11.2924 21.6589 11.2436 21.7873 11.2068C21.9953 11.1516 22.186 11.1636 22.4014 11.1093C22.4986 11.0844 22.5967 11.054 22.6948 11.0227V10.9675C22.5848 10.8571 22.5023 10.707 22.3886 10.6039C22.0769 10.3324 21.7313 10.0683 21.3766 9.84644C21.1841 9.7231 20.9403 9.64394 20.7377 9.53902C20.6643 9.5022 20.5415 9.48379 20.4993 9.42212C20.3893 9.28774 20.3252 9.10918 20.2473 8.94903C20.0713 8.61031 19.8989 8.2357 19.7458 7.87858C19.6358 7.63743 19.5689 7.3972 19.4342 7.1763C18.8017 6.12979 18.1169 5.49562 17.0637 4.87526C16.8373 4.7464 16.5659 4.69117 16.279 4.62306C16.1259 4.6157 15.9728 4.60465 15.8207 4.59821C15.7198 4.55495 15.6227 4.43806 15.5365 4.38191C15.1882 4.16101 14.2862 3.68239 14.0295 4.31564C13.8645 4.7151 14.2742 5.10904 14.4163 5.31153C14.5218 5.45236 14.6547 5.61343 14.728 5.77174C14.7711 5.87851 14.783 5.98804 14.8261 6.09941C14.9233 6.37002 15.0158 6.67191 15.1442 6.92503C15.2111 7.05389 15.2844 7.18919 15.3706 7.30516C15.4201 7.37235 15.5044 7.40365 15.5237 7.5141C15.4375 7.63927 15.432 7.82152 15.3825 7.9743C15.1625 8.67106 15.2487 9.53257 15.5603 10.0452C15.6584 10.198 15.8922 10.5368 16.2048 10.407C16.4798 10.2965 16.4192 9.94676 16.4981 9.63842C16.5164 9.56479 16.5045 9.51601 16.5421 9.4663V9.48011C16.6283 9.65315 16.7144 9.8179 16.7933 9.99094C16.9821 10.2928 17.3121 10.6058 17.588 10.8147C17.7347 10.9252 17.8511 11.1166 18.0344 11.1847V11.1663H18.0207C17.9813 11.1129 17.929 11.0872 17.8795 11.0439C17.7695 10.9335 17.6457 10.7981 17.5587 10.6757C17.302 10.3287 17.0756 9.9486 16.8739 9.55466C16.7731 9.36138 16.6888 9.15336 16.6081 8.96283C16.5714 8.8892 16.5714 8.77875 16.51 8.74193C16.4183 8.87632 16.2836 8.99321 16.2167 9.15888C16.1003 9.42396 16.0883 9.74979 16.0443 10.0885C16.0196 10.0949 16.0315 10.0885 16.0196 10.1014C15.8234 10.0535 15.7565 9.8492 15.6832 9.678C15.4998 9.2408 15.4696 8.53852 15.6282 8.03505C15.6713 7.90619 15.8546 7.49937 15.7813 7.37603C15.7428 7.25914 15.6218 7.19195 15.5548 7.09715C15.4751 6.98301 15.3898 6.83483 15.3348 6.70413C15.1882 6.35989 15.1148 5.97884 14.9553 5.6346C14.882 5.47537 14.7537 5.30877 14.6492 5.16243C14.5328 4.99675 14.4044 4.87986 14.3118 4.68381C14.2816 4.61662 14.2385 4.50525 14.2871 4.43161C14.2999 4.38191 14.3256 4.36258 14.3733 4.34878C14.4539 4.28251 14.6803 4.36903 14.7601 4.40584C14.9865 4.49788 15.1772 4.5844 15.3669 4.71326C15.4531 4.77401 15.5457 4.8909 15.6557 4.92128H15.784C15.9802 4.96454 16.2011 4.93416 16.3844 4.98847C16.7098 5.09339 17.0032 5.24618 17.2663 5.41186C18.0693 5.92361 18.7293 6.64982 19.1775 7.51594C19.2508 7.65768 19.2829 7.78746 19.3498 7.93473C19.4782 8.23846 19.6368 8.54496 19.7669 8.83858C19.8953 9.12851 20.019 9.42396 20.2032 9.66419C20.2949 9.79305 20.6634 9.86024 20.8284 9.92743C20.9503 9.98266 21.1401 10.0333 21.2501 10.1005C21.4609 10.2293 21.6663 10.3766 21.8643 10.5183C21.9651 10.5883 22.2703 10.742 22.2887 10.8663V10.8663Z" fill="white"/>
</svg>
