<svg width="24" height="24" viewBox="0 0 24 24" fill="none" xmlns="http://www.w3.org/2000/svg">
<path d="M16.405 5.676C16.29 5.676 16.212 5.69 16.131 5.709V5.722H16.145C16.199 5.826 16.291 5.902 16.359 5.995C16.413 6.102 16.459 6.209 16.513 6.315L16.527 6.3C16.621 6.234 16.667 6.128 16.667 5.967C16.627 5.92 16.621 5.873 16.587 5.827C16.547 5.76 16.461 5.727 16.407 5.674L16.405 5.676ZM5.77 18.87H4.843C4.813 17.308 4.72 15.84 4.573 14.46H4.565L3.155 18.87H2.45L1.05 14.46H1.04C0.937 15.783 0.872 17.253 0.845 18.87H0C0.055 16.904 0.192 15.06 0.41 13.34H1.56L2.895 17.404H2.903L4.25 13.34H5.345C5.587 15.355 5.729 17.2 5.773 18.87H5.77ZM9.787 14.79C9.409 16.835 8.911 18.323 8.295 19.25C7.813 19.966 7.285 20.323 6.712 20.323C6.559 20.323 6.372 20.277 6.146 20.185V19.691C6.256 19.708 6.386 19.717 6.532 19.717C6.8 19.717 7.015 19.642 7.179 19.495C7.376 19.315 7.474 19.113 7.474 18.89C7.474 18.735 7.397 18.42 7.244 17.946L6.23 14.79H7.14L7.867 17.15C8.031 17.686 8.1 18.06 8.072 18.273C8.472 17.209 8.75 16.046 8.907 14.79H9.787ZM22.112 18.87H19.482V13.34H20.367V18.19H22.112V18.87ZM18.792 19.005L17.776 18.505C17.866 18.429 17.953 18.347 18.031 18.255C18.464 17.749 18.679 16.997 18.679 16.002C18.679 14.172 17.961 13.256 16.524 13.256C15.82 13.256 15.27 13.488 14.874 13.953C14.444 14.461 14.228 15.209 14.228 16.198C14.228 17.17 14.418 17.884 14.802 18.338C15.152 18.748 15.679 18.953 16.385 18.953C16.649 18.953 16.891 18.92 17.11 18.855L18.435 19.627L18.795 19.005H18.792ZM15.5 17.763C15.275 17.403 15.163 16.823 15.163 16.027C15.163 14.634 15.587 13.937 16.433 13.937C16.876 13.937 17.203 14.104 17.41 14.437C17.634 14.799 17.746 15.373 17.746 16.16C17.746 17.564 17.322 18.268 16.476 18.268C16.031 18.268 15.706 18.101 15.498 17.768L15.5 17.763ZM13.842 17.338C13.842 17.808 13.67 18.194 13.326 18.494C12.982 18.794 12.523 18.944 11.942 18.944C11.399 18.944 10.878 18.772 10.369 18.429L10.606 17.953C11.044 18.173 11.439 18.281 11.796 18.281C12.128 18.281 12.389 18.208 12.579 18.061C12.767 17.914 12.879 17.707 12.879 17.446C12.879 17.116 12.649 16.836 12.231 16.601C11.843 16.388 11.068 15.944 11.068 15.944C10.646 15.637 10.436 15.308 10.436 14.767C10.436 14.317 10.593 13.957 10.906 13.682C11.221 13.404 11.626 13.267 12.126 13.267C12.638 13.267 13.106 13.403 13.526 13.677L13.313 14.153C12.953 14.001 12.598 13.923 12.249 13.923C11.966 13.923 11.747 13.991 11.595 14.129C11.442 14.265 11.347 14.439 11.347 14.653C11.347 14.981 11.581 15.263 12.013 15.503C12.406 15.718 13.2 16.173 13.2 16.173C13.633 16.478 13.848 16.803 13.848 17.341L13.842 17.338ZM23.224 11.486C22.689 11.472 22.274 11.526 21.927 11.674C21.827 11.714 21.667 11.714 21.653 11.841C21.708 11.894 21.716 11.981 21.763 12.055C21.843 12.189 21.981 12.368 22.109 12.462C22.249 12.572 22.389 12.678 22.536 12.772C22.796 12.932 23.091 13.027 23.346 13.188C23.491 13.282 23.639 13.401 23.786 13.501C23.859 13.551 23.906 13.641 24 13.673V13.653C23.954 13.593 23.94 13.506 23.895 13.439C23.828 13.372 23.761 13.312 23.695 13.246C23.501 12.986 23.26 12.759 23 12.571C22.786 12.425 22.318 12.221 22.23 11.976L22.217 11.962C22.363 11.949 22.537 11.896 22.677 11.856C22.904 11.796 23.112 11.809 23.347 11.75C23.453 11.723 23.56 11.69 23.667 11.656V11.596C23.547 11.476 23.457 11.313 23.333 11.201C22.993 10.906 22.616 10.619 22.229 10.378C22.019 10.244 21.753 10.158 21.532 10.044C21.452 10.004 21.318 9.984 21.272 9.917C21.152 9.771 21.082 9.577 20.997 9.403C20.805 9.035 20.617 8.628 20.45 8.24C20.33 7.978 20.257 7.717 20.11 7.477C19.42 6.34 18.673 5.651 17.524 4.977C17.277 4.837 16.981 4.777 16.668 4.703C16.501 4.695 16.334 4.683 16.168 4.676C16.058 4.629 15.952 4.502 15.858 4.441C15.478 4.201 14.494 3.681 14.214 4.369C14.034 4.803 14.481 5.231 14.636 5.451C14.751 5.604 14.896 5.779 14.976 5.951C15.023 6.067 15.036 6.186 15.083 6.307C15.189 6.601 15.29 6.929 15.43 7.204C15.503 7.344 15.583 7.491 15.677 7.617C15.731 7.69 15.823 7.724 15.844 7.844C15.75 7.98 15.744 8.178 15.69 8.344C15.45 9.101 15.544 10.037 15.884 10.594C15.991 10.76 16.246 11.128 16.587 10.987C16.887 10.867 16.821 10.487 16.907 10.152C16.927 10.072 16.914 10.019 16.955 9.965V9.98C17.049 10.168 17.143 10.347 17.229 10.535C17.435 10.863 17.795 11.203 18.096 11.43C18.256 11.55 18.383 11.758 18.583 11.832V11.812H18.568C18.525 11.754 18.468 11.726 18.414 11.679C18.294 11.559 18.159 11.412 18.064 11.279C17.784 10.902 17.537 10.489 17.317 10.061C17.207 9.851 17.115 9.625 17.027 9.418C16.987 9.338 16.987 9.218 16.92 9.178C16.82 9.324 16.673 9.451 16.6 9.631C16.473 9.919 16.46 10.273 16.412 10.641C16.385 10.648 16.398 10.641 16.385 10.655C16.171 10.603 16.098 10.381 16.018 10.195C15.818 9.72 15.785 8.957 15.958 8.41C16.005 8.27 16.205 7.828 16.125 7.694C16.083 7.567 15.951 7.494 15.878 7.391C15.791 7.267 15.698 7.106 15.638 6.964C15.478 6.59 15.398 6.176 15.224 5.802C15.144 5.629 15.004 5.448 14.89 5.289C14.763 5.109 14.623 4.982 14.522 4.769C14.489 4.696 14.442 4.575 14.495 4.495C14.509 4.441 14.537 4.42 14.589 4.405C14.677 4.333 14.924 4.427 15.011 4.467C15.258 4.567 15.466 4.661 15.673 4.801C15.767 4.867 15.868 4.994 15.988 5.027H16.128C16.342 5.074 16.583 5.041 16.783 5.1C17.138 5.214 17.458 5.38 17.745 5.56C18.621 6.116 19.341 6.905 19.83 7.846C19.91 8 19.945 8.141 20.018 8.301C20.158 8.631 20.331 8.964 20.473 9.283C20.613 9.598 20.748 9.919 20.949 10.18C21.049 10.32 21.451 10.393 21.631 10.466C21.764 10.526 21.971 10.581 22.091 10.654C22.321 10.794 22.545 10.954 22.761 11.108C22.871 11.184 23.204 11.351 23.224 11.486Z" fill="#4479A1"/>
</svg>
