<svg width="229" height="106" viewBox="0 0 229 106" fill="none" xmlns="http://www.w3.org/2000/svg">
<g clip-path="url(#clip0)">
<path d="M25.64 96.48C33.32 96.48 38.264 92.4 38.264 84.048V75.408H26.264V82.368H30.008V82.992C30.008 87.36 28.088 88.896 25.64 88.896C23.192 88.896 21.08 87.456 21.08 83.088V75.168C21.08 70.512 23.432 69.024 25.64 69.024C27.944 69.024 29.768 70.176 30.056 72.384H38.168C38.072 65.76 33.032 61.44 25.784 61.44C19.208 61.44 13.016 65.376 13.016 74.88V83.088C13.016 92.448 18.584 96.48 25.64 96.48ZM51.7209 96.384C54.3609 96.384 57.1929 95.088 58.5849 93.264L60.0249 96H65.7849V79.248C65.7849 70.992 60.0249 68.064 54.0729 68.064C49.4169 68.064 43.4169 70.608 42.8409 76.848H50.2809C50.7609 75.696 51.8169 74.688 53.8809 74.688C56.4249 74.688 57.6729 75.696 57.6729 78.096V79.632H54.1209C45.7209 79.632 41.8329 83.088 41.8329 88.176C41.8329 93.36 45.8649 96.384 51.7209 96.384ZM53.0169 89.76C50.9049 89.76 49.8969 88.944 49.8969 87.36C49.8969 85.728 51.0009 84.72 54.2169 84.72H57.6729V87.84C56.6169 88.944 55.4169 89.76 53.0169 89.76ZM72.2338 97.872V105.936C78.4258 106.272 83.3218 103.008 85.0498 97.824L94.8418 68.544H86.3938L82.5538 81.84L78.4258 68.544H69.7858L79.0978 93.84L79.0018 94.128C78.4258 96.096 76.2658 98.016 72.2338 97.872ZM111.323 96.48C117.515 96.48 122.219 93.984 122.699 87.216H114.491C114.203 88.608 113.051 89.472 110.987 89.472C108.635 89.472 107.243 88.512 106.859 84.576H122.699L122.747 81.648C122.747 72.48 117.227 68.064 110.699 68.064C104.411 68.064 98.4106 72.288 98.4106 82.08C98.4106 91.968 103.403 96.48 111.323 96.48ZM110.699 75.072C113.723 75.072 114.203 77.328 114.347 79.776H106.859C107.147 76.272 108.299 75.072 110.699 75.072ZM127.852 96H135.916V80.352C135.916 77.52 136.396 75.696 139.42 75.696C142.636 75.696 143.116 77.568 143.116 80.352V96H151.132V80.304C151.132 71.664 147.34 68.064 141.244 68.064C137.74 68.064 135.34 70.128 134.86 71.664L134.092 68.544H127.852V96Z" fill="#FFD007"/>
<path d="M24 6L31.7942 19.5H16.2058L24 6Z" fill="#295D92"/>
<circle cx="45.5" cy="12.5" r="7.5" fill="#295D92"/>
<rect x="77" y="6" width="13" height="13" fill="#295D92"/>
<rect x="58" y="17.1924" width="16.1676" height="3.75945" transform="rotate(-45 58 17.1924)" fill="#295D92"/>
<rect x="60.6583" y="6" width="16.1676" height="3.75945" transform="rotate(45 60.6583 6)" fill="#295D92"/>
<path d="M27.8437 57H35.5944V49.2493L28.6231 26.257H19.7899L12.8186 49.5957V57H20.526V51.4143H27.8437V57ZM23.8601 36.2593H24.5529L26.6313 45.2224H21.7384L23.8601 36.2593ZM39.2468 57H44.5727L45.9583 55.0515C46.9975 55.9608 48.7295 57.3897 52.2801 57.3897C56.8699 57.3897 61.1999 53.536 61.1999 44.3997C61.1999 35.6964 56.5235 31.7561 52.3667 31.7561C49.5955 31.7561 47.0408 33.0118 46.4779 33.7479V25.391H39.2468V57ZM50.245 50.7648C47.9068 50.7648 46.4779 49.5524 46.4779 44.3997C46.4779 39.68 47.9068 38.0779 50.2017 38.0779C52.3667 38.0779 53.8822 40.0264 53.8822 44.3997C53.8822 49.5091 52.3234 50.7648 50.245 50.7648ZM86.3724 57V43.6636C86.3724 36.0428 83.1682 31.7994 77.5392 31.7994C74.2051 31.7994 73.5556 32.8386 72.5597 33.4448V24.958H65.2853V57H72.5597V43.6636C72.5597 40.2862 73.036 38.5109 75.6773 38.5109C78.6217 38.5109 79.098 40.4161 79.098 43.7069V57H86.3724ZM97.8622 23.0095V29.5478H104.79V23.0095H97.8622ZM91.6703 57H111.372V50.4617H105.266V32.2324H91.6703V38.7707H97.9921V50.4617H91.6703V57ZM116.541 57H137.671V50.4617H130.57V25.391H117.753V31.9293H123.296V50.4617H116.541V57ZM149.898 57.3464C152.279 57.3464 154.834 56.1773 156.09 54.5319L157.389 57H162.585V41.8883C162.585 34.4407 157.389 31.7994 152.02 31.7994C147.82 31.7994 142.407 34.0943 141.887 39.7233H148.599C149.032 38.6841 149.985 37.7748 151.846 37.7748C154.141 37.7748 155.267 38.6841 155.267 40.8491V42.2347H152.063C144.485 42.2347 140.978 45.3523 140.978 49.9421C140.978 54.6185 144.615 57.3464 149.898 57.3464ZM151.067 51.371C149.162 51.371 148.253 50.6349 148.253 49.206C148.253 47.7338 149.248 46.8245 152.15 46.8245H155.267V49.639C154.315 50.6349 153.232 51.371 151.067 51.371ZM178.058 57.3897C184.337 57.3897 188.19 54.7484 188.19 49.1627C188.19 44.0966 185.376 41.8883 180.266 41.6718C175.244 41.4553 174.421 40.8058 174.421 39.4202C174.421 38.2944 175.46 37.515 177.192 37.515C179.184 37.515 180.137 38.1645 180.396 39.8532H187.238C186.978 34.3108 183.297 31.7994 177.279 31.7994C171.78 31.7994 167.493 34.9603 167.493 39.4635C167.493 43.8368 170.957 46.6513 175.46 46.8678C180.353 47.0843 180.743 47.9936 180.743 49.0761C180.743 50.072 179.92 51.0679 178.101 51.0679C176.283 51.0679 174.594 50.6349 174.118 48.773H166.714C167.103 54.3154 171.173 57.3897 178.058 57.3897ZM214.099 57V43.6636C214.099 36.0428 210.895 31.7994 205.266 31.7994C201.932 31.7994 201.282 32.8386 200.286 33.4448V24.958H193.012V57H200.286V43.6636C200.286 40.2862 200.763 38.5109 203.404 38.5109C206.348 38.5109 206.825 40.4161 206.825 43.7069V57H214.099Z" fill="white"/>
</g>
<defs>
<clipPath id="clip0">
<rect width="229" height="106" fill="white"/>
</clipPath>
</defs>
</svg>
