<svg width="24" height="24" viewBox="0 0 24 24" fill="none" xmlns="http://www.w3.org/2000/svg">
<rect width="24" height="24" rx="4" fill="#DB7093"/>
<path d="M15.8628 7L15.7941 7.33591C15.6877 7.97251 15.7262 8.15464 16.0177 8.39089L16.2992 8.60911L16.0077 9.82732C15.8335 10.5541 15.6199 11.1632 15.4843 11.3634C15.3678 11.5361 15.2322 11.7904 15.2028 11.927C15.1543 12.0902 14.9893 12.2543 14.7372 12.3995C14.5144 12.518 14.0772 12.8359 13.7673 13.0911C13.5198 13.2998 13.3493 13.4278 13.2568 13.4828L12.9543 13.707C12.8571 13.8531 12.8021 13.9708 12.781 14.0601C12.7599 14.1521 12.7718 14.2131 12.803 14.2577C12.8333 14.3007 12.8855 14.3308 12.957 14.3497C13.0416 14.3682 13.1288 14.3749 13.2155 14.3694C13.4117 14.3569 13.6059 14.3246 13.7948 14.2732C13.859 14.2569 13.9094 14.2414 13.9534 14.2277C14.0212 14.1495 14.178 14.0017 14.4558 13.7448C15.1927 13.0636 15.4742 12.6907 15.1836 12.7912C15.0763 12.8273 15.1249 12.7363 15.3092 12.5541C15.6978 12.1993 15.9206 11.6632 16.3863 9.98196C16.7548 8.65464 16.7548 8.63574 17.0261 8.63574C17.1535 8.63574 17.5138 8.65636 17.5138 8.65636V7H16.6869H15.8628ZM19.3819 9.71907C19.3232 9.71907 19.2261 9.80155 19.1683 9.89261C19.062 10.0558 19.1876 10.1555 20.7881 11.0919C21.7387 11.6564 22.505 12.1375 22.4858 12.1744C22.4665 12.201 21.6901 12.6744 20.7597 13.2199C19.0712 14.201 19.062 14.2105 19.2169 14.4107C19.4112 14.6469 19.2169 14.7285 21.4087 13.4467L23 12.4923V11.7741L21.2244 10.7466C20.2647 10.183 19.4305 9.72852 19.3819 9.71907ZM4.63733 9.81959C4.58875 9.81959 3.75458 10.2835 2.79483 10.8376L1 11.8651V12.5833L2.78475 13.6289C3.77475 14.201 4.60892 14.6744 4.64742 14.6744C4.68592 14.6744 4.76383 14.5919 4.84175 14.4923C4.95817 14.3196 4.86008 14.2466 3.22108 13.2741C1.66 12.3557 1.495 12.2285 1.65083 12.1289C1.748 12.0653 2.485 11.6375 3.28067 11.1744C5.09475 10.1289 4.99758 10.201 4.85183 9.98282C4.79408 9.89261 4.696 9.811 4.63825 9.81959H4.63733ZM12.5977 9.83935C12.33 9.83763 11.7543 10.2199 10.031 11.5387C9.95675 11.7045 9.95033 11.8187 9.98425 11.8926C10.0062 11.9433 10.0466 11.9785 10.1025 12.0043C10.1575 12.0301 10.229 12.0455 10.3078 12.0515C10.4646 12.0644 10.6497 12.0412 10.7992 12.0137L10.9 11.9923C10.9345 11.9489 10.9798 11.9141 11.032 11.8909C11.1383 11.8359 11.5848 11.4545 12.0312 11.0455C12.8168 10.2998 13.001 9.96306 12.6811 9.85395C12.6548 9.84416 12.6268 9.83921 12.5986 9.83935H12.5977ZM14.6107 10.3574C14.3751 10.3634 13.9507 10.6194 13.2238 11.1632C12.8589 11.4407 12.6279 11.5902 12.5042 11.6211L12.0238 11.9768C11.8433 12.2861 11.8167 12.4777 11.8643 12.5833C11.8763 12.6094 11.8936 12.633 11.9153 12.6528C11.937 12.6725 11.9627 12.688 11.9908 12.6985C12.0609 12.7244 12.1355 12.7375 12.2108 12.7371C12.3908 12.7353 12.5696 12.7108 12.7425 12.6641C12.8326 12.6414 12.9216 12.6151 13.0092 12.5851L13.0358 12.5747L13.0844 12.5507C13.1761 12.4399 13.3869 12.2311 13.6509 11.9905C14.4851 11.2363 14.9113 10.7002 14.8243 10.5C14.7848 10.4029 14.717 10.354 14.6107 10.3574ZM12.3887 11.2852C12.3208 11.2921 12.1687 11.4021 11.8946 11.6271C11.4986 11.9553 11.0668 12.1443 10.9174 12.0601C10.8827 12.0675 10.8479 12.0744 10.8129 12.0808C10.6608 12.1091 10.471 12.1323 10.3014 12.1194C10.2215 12.1149 10.1432 12.0965 10.0704 12.0653C10.0018 12.0359 9.94699 11.9839 9.91642 11.9192C9.8825 11.8419 9.8825 11.7457 9.921 11.6229L9.32517 12.0816L7.97675 13.1271V14.8222L12.3951 11.5601C12.3942 11.5244 12.3992 11.4888 12.4097 11.4545C12.4437 11.3393 12.4418 11.2809 12.3887 11.2861V11.2852ZM14.2898 11.8342C14.2229 11.8342 14.1111 11.9227 13.9323 12.1005C13.6894 12.3436 13.3072 12.579 13.1046 12.6271L13.0734 12.6426C13.0402 12.6555 13.0065 12.6675 12.9726 12.6787C12.9176 12.6959 12.8461 12.7165 12.7636 12.7371C12.5986 12.7792 12.3933 12.8179 12.2099 12.8136C12.1235 12.8135 12.0379 12.7977 11.9578 12.7672C11.8824 12.738 11.8219 12.6826 11.7892 12.6125C11.736 12.4931 11.7571 12.3256 11.8735 12.0876L7.97583 14.9648V16H9.68817L13.32 13.3265C13.4144 13.2285 13.5565 13.0945 13.7481 12.927C14.2614 12.4811 14.3778 12.3273 14.3778 12.0997C14.3778 11.9227 14.3568 11.8333 14.2898 11.8333V11.8342ZM15.1543 13.5094L14.8435 13.7998C14.6693 13.9545 14.3586 14.1452 14.1459 14.2268L14.1038 14.244L14.101 14.2483L14.0918 14.2569C14.0836 14.2629 14.0799 14.2637 14.0735 14.2663C13.9886 14.2964 13.9024 14.3231 13.815 14.3462C13.6208 14.3992 13.421 14.4323 13.2192 14.445C13.1237 14.4508 13.0279 14.4429 12.935 14.4218C12.8544 14.4052 12.7831 14.3611 12.7352 14.2981C12.6912 14.2345 12.6783 14.1495 12.7031 14.0447C12.7228 13.9701 12.752 13.8979 12.7902 13.8299L9.85958 16H13.7572L14.2229 15.5C14.8628 14.8007 15.1543 14.3007 15.1543 13.8729V13.5094Z" fill="white"/>
</svg>
