<svg width="24" height="24" viewBox="0 0 24 24" fill="none" xmlns="http://www.w3.org/2000/svg">
<path d="M12 9.861C11.7191 9.861 11.441 9.91633 11.1814 10.0238C10.9219 10.1313 10.6861 10.2889 10.4875 10.4875C10.2889 10.6861 10.1313 10.9219 10.0238 11.1814C9.91633 11.441 9.861 11.7191 9.861 12C9.861 12.2809 9.91633 12.559 10.0238 12.8186C10.1313 13.0781 10.2889 13.3139 10.4875 13.5125C10.6861 13.7111 10.9219 13.8687 11.1814 13.9762C11.441 14.0837 11.7191 14.139 12 14.139C12.2809 14.139 12.559 14.0837 12.8186 13.9762C13.0781 13.8687 13.3139 13.7111 13.5125 13.5125C13.7111 13.3139 13.8687 13.0781 13.9762 12.8186C14.0837 12.559 14.139 12.2809 14.139 12C14.139 11.7191 14.0837 11.441 13.9762 11.1814C13.8687 10.9219 13.7111 10.6861 13.5125 10.4875C13.3139 10.2889 13.0781 10.1313 12.8186 10.0238C12.559 9.91633 12.2809 9.861 12 9.861ZM6.008 16.255L5.536 16.135C2.018 15.246 0 13.737 0 11.996C0 10.255 2.018 8.746 5.536 7.857L6.008 7.738L6.141 8.206C6.49738 9.43371 6.95322 10.6303 7.504 11.784L7.605 11.997L7.504 12.21C6.95231 13.3633 6.49643 14.56 6.141 15.788L6.008 16.255ZM5.317 8.95C2.643 9.701 1.002 10.85 1.002 11.996C1.002 13.141 2.643 14.29 5.317 15.042C5.64402 14.0019 6.03887 12.9844 6.499 11.996C6.03834 11.0078 5.64348 9.99026 5.317 8.95V8.95ZM17.992 16.255L17.859 15.786C17.503 14.5584 17.0468 13.362 16.495 12.209L16.394 11.996L16.495 11.783C17.0466 10.6296 17.5028 9.4329 17.859 8.205L17.992 7.737L18.465 7.856C21.982 8.745 24 10.254 24 11.996C24 13.738 21.982 15.246 18.465 16.135L17.992 16.255V16.255ZM17.501 11.996C17.981 13.035 18.378 14.056 18.683 15.042C21.358 14.29 22.998 13.141 22.998 11.996C22.998 10.85 21.357 9.702 18.683 8.95C18.3564 9.99022 17.9616 11.0078 17.501 11.996V11.996ZM5.31 8.945L5.177 8.478C4.188 4.992 4.488 2.494 6 1.622C7.483 0.766001 9.864 1.777 12.359 4.338L12.699 4.687L12.359 5.036C11.4725 5.95761 10.6624 6.94989 9.937 8.003L9.802 8.196L9.567 8.216C8.29091 8.3166 7.02509 8.5206 5.782 8.826L5.31 8.945V8.945ZM7.206 2.315C6.938 2.315 6.701 2.373 6.501 2.488C5.507 3.061 5.331 5.053 6.016 7.741C7.08164 7.50393 8.16159 7.33658 9.249 7.24C9.87642 6.34788 10.5619 5.49805 11.301 4.696C9.741 3.177 8.264 2.315 7.206 2.315V2.315ZM16.795 22.677C16.794 22.677 16.794 22.677 16.795 22.677C15.37 22.677 13.54 21.604 11.641 19.654L11.301 19.305L11.641 18.956C12.5273 18.0341 13.337 17.0415 14.062 15.988L14.197 15.795L14.431 15.775C15.7078 15.675 16.9743 15.4713 18.218 15.166L18.69 15.047L18.824 15.515C19.811 18.999 19.512 21.498 18 22.369C17.6327 22.5767 17.2169 22.683 16.795 22.677V22.677ZM12.699 19.296C14.259 20.815 15.736 21.677 16.794 21.677H16.795C17.062 21.677 17.3 21.619 17.499 21.504C18.493 20.931 18.67 18.938 17.984 16.25C16.9181 16.4874 15.8378 16.6548 14.75 16.751C14.1233 17.6437 13.4382 18.4939 12.699 19.296V19.296ZM18.69 8.945L18.218 8.826C16.9744 8.51972 15.7079 8.31571 14.431 8.216L14.197 8.196L14.062 8.003C13.3374 6.94956 12.5277 5.95724 11.641 5.036L11.301 4.687L11.641 4.338C14.135 1.778 16.515 0.767001 18 1.622C19.512 2.494 19.812 4.992 18.824 8.477L18.69 8.945ZM14.75 7.24C15.892 7.344 16.977 7.513 17.984 7.741C18.67 5.053 18.493 3.061 17.499 2.488C16.511 1.917 14.654 2.792 12.699 4.696C13.4377 5.49808 14.1229 6.34792 14.75 7.24V7.24ZM7.206 22.677C6.7838 22.6831 6.36756 22.5768 6 22.369C4.488 21.498 4.188 19 5.177 15.515L5.309 15.047L5.781 15.166C6.936 15.457 8.21 15.662 9.566 15.775L9.801 15.795L9.935 15.988C10.6606 17.0413 11.4706 18.0339 12.357 18.956L12.697 19.305L12.357 19.654C10.459 21.604 8.629 22.677 7.206 22.677V22.677ZM6.016 16.25C5.33 18.938 5.507 20.931 6.501 21.504C7.488 22.067 9.344 21.199 11.301 19.296C10.5622 18.4933 9.87674 17.6432 9.249 16.751C8.16154 16.6548 7.08156 16.4875 6.016 16.25V16.25ZM12 16.878C11.177 16.878 10.331 16.842 9.484 16.772L9.249 16.752L9.114 16.559C8.63491 15.8706 8.18452 15.1627 7.764 14.437C7.34472 13.7108 6.95572 12.9675 6.598 12.209L6.498 11.996L6.598 11.783C6.95567 11.0245 7.34467 10.2812 7.764 9.555C8.178 8.839 8.633 8.125 9.114 7.433L9.249 7.24L9.484 7.22C11.1587 7.078 12.8423 7.078 14.517 7.22L14.751 7.24L14.885 7.433C15.8442 8.81006 16.6861 10.2652 17.402 11.783L17.503 11.996L17.402 12.209C16.6878 13.7277 15.8458 15.183 14.885 16.559L14.751 16.752L14.517 16.772C13.67 16.842 12.823 16.878 12 16.878V16.878ZM9.803 15.794C11.283 15.905 12.717 15.905 14.198 15.794C15.0248 14.5853 15.7589 13.3156 16.394 11.996C15.7601 10.6756 15.0256 9.40584 14.197 8.198C12.7344 8.087 11.2656 8.087 9.803 8.198C8.97408 9.40561 8.23957 10.6754 7.606 11.996C8.24176 13.3155 8.97618 14.5851 9.803 15.794V15.794Z" fill="#61DAFB"/>
</svg>
